<?xml version="1.0" encoding="utf-8"?>
<!-- Generator: Adobe Illustrator 16.0.0, SVG Export Plug-In . SVG Version: 6.00 Build 0)  -->
<!DOCTYPE svg PUBLIC "-//W3C//DTD SVG 1.1//EN" "http://www.w3.org/Graphics/SVG/1.1/DTD/svg11.dtd">
<svg version="1.1" id="Layer_1" xmlns="http://www.w3.org/2000/svg" xmlns:xlink="http://www.w3.org/1999/xlink" x="0px" y="0px"
	 width="123.588px" height="124.917px" viewBox="0 0 123.588 124.917" enable-background="new 0 0 123.588 124.917"
	 xml:space="preserve">
<g>
	<g>
		<path fill-rule="evenodd" clip-rule="evenodd" fill="#FFFFFF" d="M0.032,0c0.806,0.133,1.31,0.216,1.813,0.299
			C18.606,3.068,32.955,5.407,45.374,7.5c4.172,0.703,8.062,1.928,11.526,4.189c5.154,3.365,6.885,8.38,6.161,13.579
			c-0.705,5.087-3.906,8.005-8.654,9.72c-0.488,0.178-1.01,0.276-1.494,0.477c-0.261,0.109-0.465,0.356-0.697,0.541
			c0.257,0.195,0.486,0.495,0.773,0.566c1.156,0.282,2.354,0.373,3.442,0.744c3.242,1.101,6.201,2.446,7.293,6.014
			c0.743,2.435,0.879,4.951,0.445,7.557c-0.601,3.613-2.435,6.416-5.586,8.568c-4.076,2.782-8.682,4.239-13.729,5.08
			c-12.31,2.042-26.508,4.373-43.064,7.143c-1.426,0.239-1.808-0.026-1.789-1.083c0.073-4.179,0.063-8.345,0.003-12.507
			c-0.012-0.909,0.34-1.299,1.553-1.336c0.951-0.032,1.906-0.199,2.846-0.258c1.236-0.079,1.736-0.503,1.713-1.489
			c-0.064-2.771-0.021-5.552-0.021-8.329c0-9.792,0-19.586,0-29.38c-0.002-1.678-0.039-1.705-2.217-1.921
			c-3.848-0.38-3.848-0.38-3.848-3.33c0-3.552,0-7.101,0-10.653C0.032,0.977,0.032,0.561,0.032,0z M34.209,46.715
			c0,1.985,0.015,3.967-0.011,5.954c-0.007,0.593,0.175,0.937,0.894,0.853c1.82-0.212,3.617-0.325,5.355-0.661
			c2.059-0.397,3.331-1.505,3.497-3.324c0.206-2.233,0.192-4.493-0.03-6.702c-0.179-1.781-1.563-2.77-3.548-2.866
			c-1.676-0.08-3.398,0.011-5.144-0.015c-0.828-0.013-1.046,0.293-1.027,1.002C34.242,42.873,34.209,44.795,34.209,46.715z
			 M34.209,24.723c0,1.887,0.023,3.774-0.012,5.66c-0.013,0.637,0.227,0.869,0.94,0.869c1.432-0.002,2.845,0.095,4.232,0.075
			c2.44-0.036,3.884-1.123,4.099-3.327c0.177-1.823,0.131-3.693-0.03-5.541c-0.145-1.685-1.313-2.92-3.127-3.34
			c-1.587-0.369-3.246-0.47-4.914-0.72c-0.878-0.131-1.229,0.126-1.206,0.954C34.249,21.146,34.209,22.935,34.209,24.723z"/>
		<path fill-rule="evenodd" clip-rule="evenodd" fill="#FFFFFF" d="M101.342,35.994c-0.054,3.471-0.306,6.892-1.236,10.241
			c-1.105,3.987-3.11,6.994-6.057,9.083c-3.109,2.206-6.541,3.136-10.239,3.402c-2.357,0.169-4.726-0.015-7.047-0.87
			c-4.015-1.479-6.948-4.57-8.563-9.346c-1.892-5.593-2.067-11.529-1.552-17.534c0.252-2.938,0.795-5.761,1.823-8.393
			c1.455-3.723,3.75-6.401,6.89-7.949c3.604-1.779,7.318-1.767,10.956-1.155c2.387,0.402,4.651,1.144,6.755,2.423
			c3.932,2.393,6.397,6.175,7.442,11.419c0.255,1.271,0.453,2.566,0.568,3.858C101.228,32.772,101.26,34.388,101.342,35.994z
			 M82.95,35.954c0.005,0.001,0.006,0.001,0.008,0c0,3.082-0.021,6.164,0.01,9.244c0.019,1.964,0.866,3.216,2.221,3.379
			c0.5,0.062,1.02,0.039,1.517-0.06c1.138-0.226,1.933-1.052,2.244-2.444c0.16-0.722,0.194-1.498,0.198-2.243
			c0.016-5.149,0.012-10.299,0.007-15.45c-0.004-0.638-0.013-1.281-0.086-1.915c-0.104-0.939-0.426-1.779-1.059-2.394
			c-1.957-1.906-4.755-0.656-5.033,2.356c-0.03,0.328-0.024,0.666-0.024,1C82.95,30.269,82.95,33.111,82.95,35.954z"/>
		<path fill-rule="evenodd" clip-rule="evenodd" fill="#FFFFFF" d="M123.486,20.38c0.008,0.223,0.017,0.371,0.017,0.518
			c0.001,1.823-0.003,3.643,0.005,5.466c0.003,0.376-0.047,0.59-0.285,0.487c-0.688-0.298-1.13,0.219-1.571,1.072
			c-1.202,2.322-2.492,4.625-3.81,6.997c-0.222,0.4-0.217,0.646-0.004,1.05c1.59,3.002,3.111,5.937,4.605,8.754
			c0.106,0.201,0.306,0.283,0.474,0.342c0.136,0.049,0.29-0.004,0.435-0.032c0.153-0.029,0.236,0.051,0.235,0.34
			c-0.001,1.92-0.001,3.842,0.001,5.762c0,0.312-0.088,0.407-0.255,0.43c-0.553,0.081-1.114,0.181-1.68,0.274
			c-2.274,0.375-4.66,0.77-7.162,1.184c-0.136,0.022-0.271,0.045-0.43,0.071c0-2.407,0-4.753,0-7.183
			c0.33-0.031,0.657-0.063,1.062-0.102c-0.095-0.275-0.139-0.446-0.205-0.592c-0.396-0.862-0.799-1.728-1.208-2.596
			c-0.233-0.492-0.424-0.476-0.656,0.047c-0.422,0.951-0.849,1.911-1.274,2.882c-0.062,0.137-0.099,0.296-0.204,0.622
			c0.344-0.033,0.603-0.043,0.858-0.087c0.232-0.041,0.317,0.098,0.315,0.458c-0.004,2.104-0.004,4.21-0.001,6.313
			c0.001,0.336-0.085,0.474-0.3,0.508c-3.308,0.541-6.831,1.123-10.59,1.741c-0.027,0.004-0.057-0.008-0.119-0.021
			c0-2.625,0-5.262,0-7.967c0.448-0.043,0.895-0.042,1.33-0.146c0.216-0.05,0.48-0.221,0.619-0.457
			c1.983-3.345,3.88-6.596,5.726-9.726c0.188-0.32,0.197-0.551,0.008-0.881c-1.943-3.404-3.952-6.941-6.029-10.617
			c-0.262-0.463-0.586-0.388-0.907-0.429c-0.751-0.098-0.723,0.112-0.723-1.097c-0.002-2.119,0.005-4.236-0.005-6.358
			c-0.001-0.422,0.06-0.614,0.409-0.555c3.956,0.667,7.649,1.272,11.107,1.845c0.048,0.008,0.094,0.028,0.174,0.053
			c0,2.355,0,4.71,0,7.132c-0.288-0.007-0.588-0.016-0.958-0.026c0.061,0.242,0.089,0.419,0.148,0.564
			c0.399,0.979,0.801,1.949,1.205,2.905c0.182,0.43,0.393,0.485,0.561,0.117c0.439-0.975,0.859-1.963,1.279-2.938
			c0.025-0.063,0.021-0.164,0.047-0.373c-0.25-0.024-0.471-0.056-0.69-0.063c-0.179-0.005-0.244-0.129-0.244-0.408
			c0.004-2.118,0.004-4.235,0-6.354c-0.002-0.458,0.198-0.325,0.358-0.299c2.078,0.34,4.074,0.67,5.993,0.987
			C121.928,20.124,122.697,20.25,123.486,20.38z"/>
	</g>
	<g>
		<path fill-rule="evenodd" clip-rule="evenodd" fill="#FFFFFF" d="M71.406,108.31c0,3.8,0,7.473,0,11.243
			c-0.232-0.024-0.443-0.034-0.653-0.068c-4.886-0.785-9.496-1.544-13.854-2.215c-0.528-0.08-0.645-0.358-0.642-1.055
			c0.016-4.452,0.021-8.908,0-13.365c-0.006-1.047-0.08-2.11-0.209-3.144c-0.205-1.61-0.984-2.562-1.993-2.938
			c-0.814-0.301-1.662-0.337-2.484-0.435c-0.101-0.011-0.307,0.305-0.309,0.474c-0.02,2.982-0.007,5.968-0.019,8.951
			c-0.004,0.534,0.189,0.665,0.483,0.692c0.588,0.054,1.18,0.135,1.776,0.159c0.365,0.017,0.499,0.21,0.497,0.76
			c-0.013,2.908-0.015,5.815,0,8.728c0.003,0.566-0.156,0.671-0.508,0.614c-5.056-0.828-9.784-1.591-14.217-2.294
			c-0.297-0.047-0.402-0.208-0.4-0.703c0.012-2.616,0.012-5.235,0-7.855c-0.002-0.505,0.112-0.643,0.405-0.588
			c0.318,0.06,0.639,0.064,0.96,0.09c0.264,0.023,0.417-0.143,0.402-0.604c-0.006-0.166,0.002-0.332,0.002-0.496
			c0-7.815,0-15.631,0-23.445c0-1.103-0.007-1.107-0.688-1.049c-1.077,0.095-1.077,0.095-1.077-1.669c0-2.15,0-4.301,0-6.452
			c0-0.253,0-0.506,0-0.82c0.179-0.046,0.318-0.094,0.457-0.115c5.491-0.874,11.443-1.857,17.915-2.821
			c2.352-0.35,4.735-0.253,7.034,0.973c2.88,1.538,4.359,4.639,4.863,8.838c0.376,3.118,0.307,6.248-0.46,9.32
			c-0.719,2.898-1.941,5.217-3.994,6.537c-0.201,0.13-0.328,0.479-0.487,0.727c0.205,0.187,0.396,0.474,0.624,0.548
			c2.497,0.817,4.04,3.324,4.108,6.855c0.036,1.8,0.05,3.6,0.03,5.396c-0.008,0.75,0.213,1.053,0.759,1.074
			C70.265,108.18,70.808,108.253,71.406,108.31z M51.248,83.788c0,1.478,0.003,2.955-0.002,4.433
			c-0.002,0.374,0.026,0.649,0.349,0.631c0.759-0.04,1.528,0,2.3-0.093c1.134-0.139,1.97-1.19,2.048-2.741
			c0.083-1.648,0.072-3.312,0.003-4.954c-0.057-1.305-0.709-2.271-1.596-2.386c-0.852-0.109-1.714,0.002-2.558-0.005
			c-0.435-0.004-0.562,0.296-0.552,0.911C51.264,80.982,51.248,82.386,51.248,83.788z"/>
		<path fill-rule="evenodd" clip-rule="evenodd" fill="#FFFFFF" d="M27.957,91.449c0-3.225,0-6.45,0-9.675
			c0-0.865-0.007-0.878-0.476-0.838c-0.775,0.065-0.68,0.138-0.681-1.134c-0.003-2.13,0.007-4.261-0.007-6.389
			c-0.003-0.552,0.084-0.748,0.405-0.797c3.1-0.474,6.359-0.992,9.789-1.556c0.331-0.054,0.43,0.079,0.428,0.633
			c-0.018,2.547-0.02,5.09,0,7.63c0.004,0.573-0.12,0.744-0.438,0.742c-0.291,0-0.584,0.055-0.874,0.079
			c-0.26,0.021-0.38,0.231-0.364,0.665c0.007,0.204,0,0.412,0,0.617c-0.003,6.278,0.045,12.562-0.033,18.836
			c-0.041,3.364-0.538,6.541-1.873,9.022c-0.896,1.666-2.044,2.597-3.287,3.191c-1.914,0.914-3.841,0.723-5.719,0.233
			c-1.616-0.42-3.128-1.333-4.489-2.971c-1.426-1.714-2.244-4.112-2.646-7.057c-0.258-1.891-0.294-3.797-0.3-5.704
			c-0.012-4.783-0.003-9.566-0.003-14.35c0-0.733-0.015-0.758-0.394-0.731c-0.817,0.058-0.817,0.058-0.817-1.521
			c0-1.811,0.005-3.622-0.004-5.432c-0.002-0.423,0.058-0.587,0.286-0.621c2.836-0.438,5.816-0.911,8.953-1.422
			c0.257-0.042,0.348,0.069,0.346,0.551c-0.012,2.325-0.011,4.648-0.001,6.97c0.002,0.48-0.073,0.679-0.355,0.71
			c-0.761,0.085-0.761,0.105-0.761,1.486c0,5.798,0,11.595,0,17.393c0,0.376,0,0.753,0.008,1.13c0.036,1.805,0.723,2.96,1.73,2.889
			c1.06-0.078,1.539-0.855,1.557-2.782c0.029-3.264,0.008-6.533,0.008-9.8C27.949,91.449,27.953,91.449,27.957,91.449z"/>
		<path fill-rule="evenodd" clip-rule="evenodd" fill="#FFFFFF" d="M99.244,90.796c0-5.095-0.016-10.189,0.014-15.287
			c0.007-0.88-0.239-1.163-1.018-1.091c-1.835,0.169-1.835,0.137-1.835-1.987c0-3.226,0.023-6.456-0.015-9.674
			c-0.01-0.869,0.215-1.174,0.992-1.295c7.694-1.191,16.02-2.517,25.062-3.98c0.893-0.145,1.149,0.07,1.139,0.974
			c-0.046,4.178-0.053,8.349,0.004,12.515c0.012,0.954-0.347,1.224-1.181,1.249c-0.631,0.019-1.265,0.151-1.888,0.157
			c-1.016,0.01-1.499,0.401-1.407,1.508c0.075,0.917,0.016,1.855,0.016,2.783c-0.014,9.364,0.037,18.729-0.061,28.088
			c-0.044,4.223-0.917,8.241-2.789,11.804c-2.358,4.479-6.184,6.668-10.59,7.729c-4.787,1.152-9.519,0.558-14.053-0.452
			c-3.569-0.795-6.893-2.276-9.892-4.585c-4.263-3.285-6.349-7.987-6.992-13.634c-0.236-2.079-0.304-4.189-0.314-6.276
			c-0.037-7.164-0.013-14.328-0.016-21.491c0-1.192-0.022-1.219-0.967-1.139c-1.745,0.148-1.745,0.148-1.745-2.148
			c0.001-2.67,0.021-5.342-0.011-8.006c-0.012-0.809,0.192-1.048,0.798-1.141c6.304-0.973,13.09-2.053,20.423-3.241
			c0.68-0.111,0.938,0.043,0.934,0.883c-0.033,3.581-0.03,7.157-0.004,10.73c0.007,0.824-0.25,1.09-0.934,1.149
			c-1.719,0.152-1.719,0.184-1.719,2.166c0,9.124-0.002,18.251,0.006,27.377c0.004,0.869-0.02,1.771,0.164,2.613
			c0.488,2.236,1.91,3.437,3.943,3.439c2.689,0.003,3.888-1.309,3.914-4.553c0.041-5.06,0.013-10.122,0.013-15.183
			C99.238,90.797,99.242,90.796,99.244,90.796z"/>
		<path fill-rule="evenodd" clip-rule="evenodd" fill="#FFFFFF" d="M11.462,92.135c1.195-0.003,2.417,0.01,3.665-0.021
			c0.264-0.007,0.336,0.149,0.331,0.657c-0.013,1.817-0.017,3.638,0.002,5.457c0.005,0.604-0.102,0.749-0.392,0.722
			c-0.784-0.075-0.784-0.053-0.784,1.523c0,2.337-0.005,4.673,0.004,7.011c0.001,0.444-0.069,0.675-0.275,0.84
			c-1.028,0.821-2.097,1.225-3.163,1.497c-1.339,0.343-2.661,0.275-3.956-0.09c-1.496-0.421-2.893-1.3-4.116-3.174
			c-1.239-1.896-2.005-4.435-2.407-7.508C0.094,96.933,0.001,94.779,0,92.599c-0.001-2.346,0.09-4.664,0.388-6.946
			c0.523-3.995,1.68-6.8,3.441-8.573c0.725-0.729,1.492-1.191,2.285-1.497c2.25-0.867,4.553-0.803,6.891,0.469
			c0.374,0.202,0.731,0.515,1.086,0.838c0.093,0.085,0.182,0.38,0.183,0.592c0.011,3.33,0.006,6.663,0.011,9.996
			c0,0.374-0.067,0.498-0.253,0.503c-1.712,0.058-3.37,0.123-4.981,0.198c-0.179,0.009-0.25-0.112-0.247-0.494
			c0.005-0.729,0.002-1.457-0.009-2.184c-0.025-1.673-0.418-2.572-1.198-2.684c-0.273-0.039-0.561,0.009-0.829,0.137
			c-0.575,0.272-0.93,1.325-0.937,2.729c-0.011,2.179-0.009,4.355-0.009,6.532c0,2.318-0.005,4.638,0.006,6.957
			c0.01,1.903,0.454,2.888,1.362,3.032c0.522,0.085,1.029,0.012,1.368-0.988c0.235-0.694,0.25-1.516,0.237-2.339
			c-0.001-0.105-0.118-0.285-0.188-0.301c-0.225-0.05-0.45-0.058-0.673-0.048c-0.184,0.007-0.239-0.165-0.238-0.526
			c0.004-1.784,0.007-3.568-0.001-5.353c-0.002-0.412,0.072-0.515,0.257-0.513C9.097,92.148,10.267,92.138,11.462,92.135z"/>
	</g>
</g>
</svg>
