<?xml version="1.0" encoding="utf-8"?>
<!-- Generator: Adobe Illustrator 16.0.0, SVG Export Plug-In . SVG Version: 6.00 Build 0)  -->
<!DOCTYPE svg PUBLIC "-//W3C//DTD SVG 1.1//EN" "http://www.w3.org/Graphics/SVG/1.1/DTD/svg11.dtd">
<svg version="1.1" id="Layer_1" xmlns="http://www.w3.org/2000/svg" xmlns:xlink="http://www.w3.org/1999/xlink" x="0px" y="0px"
	 width="471.876px" height="470.527px" viewBox="0 0 471.876 470.527" enable-background="new 0 0 471.876 470.527"
	 xml:space="preserve">
<g>
	<path fill-rule="evenodd" clip-rule="evenodd" fill="#73AD2C" d="M341.417,200.258c1.376,2.59,2.73,4.859,3.821,7.248
		c2.538,5.56,5.096,11.117,7.361,16.79c1.611,4.036,2.903,8.216,4.077,12.404c1.567,5.591,2.914,11.245,4.285,16.889
		c0.453,1.864,0.716,3.776,1.015,5.674c2.247,14.239,2.86,28.566,1.779,42.924c-0.506,6.723-1.424,13.442-2.64,20.074
		c-1.083,5.905-2.726,11.717-4.324,17.515c-1.171,4.243-2.479,8.47-4.07,12.571c-2.022,5.212-4.135,10.42-6.674,15.391
		c-3.296,6.454-6.779,12.847-10.662,18.961c-9.95,15.664-22.134,29.423-36.379,41.337c-9.461,7.914-19.593,14.836-30.456,20.689
		c-8.185,4.41-16.618,8.231-25.401,11.308c-7.647,2.677-15.416,4.842-23.333,6.582c-17.89,3.931-35.973,4.71-54.134,3.183
		c-7.947-0.668-15.884-2.032-23.68-3.743c-7.016-1.54-13.861-3.896-20.729-6.058c-7.781-2.451-15.174-5.878-22.4-9.623
		c-13.462-6.976-25.884-15.482-37.255-25.541c-6.983-6.177-13.467-12.827-19.417-19.981c-7.178-8.632-13.748-17.729-18.933-27.705
		c-3.867-7.44-7.591-14.986-10.8-22.726c-2.492-6.011-4.336-12.325-6.019-18.625c-1.738-6.506-2.988-13.146-4.339-19.75
		c-0.499-2.437-0.73-4.934-0.993-7.413c-1.418-13.393-1.577-26.808,0.041-40.176c0.878-7.256,2.103-14.503,3.725-21.628
		c2.326-10.219,5.665-20.139,9.804-29.801c4.51-10.527,9.92-20.555,16.312-30.024c9.311-13.796,20.278-26.159,32.977-36.955
		c9.834-8.36,20.407-15.628,31.758-21.795c7.625-4.143,15.492-7.748,23.618-10.732c5.39-1.98,10.958-3.492,16.481-5.089
		c9.154-2.647,18.52-4.36,27.992-5.114c8.072-0.643,16.204-0.801,24.305-0.727c6.015,0.056,12.045,0.644,18.029,1.339
		c4.579,0.532,9.116,1.506,13.634,2.463c4.413,0.936,8.813,1.972,13.151,3.201c4.087,1.158,8.158,2.441,12.107,3.997
		c5.589,2.201,11.097,4.622,16.568,7.105c3.112,1.412,6.087,3.125,9.116,4.719c1.194,0.629,0.792,1.356,0.101,2.111
		c-3.649,3.983-7.289,7.975-10.932,11.963c-4.905,5.369-9.84,10.71-14.691,16.126c-1.041,1.163-1.794,1.445-3.395,0.786
		c-6.414-2.645-12.859-5.257-19.441-7.431c-4.512-1.489-9.25-2.335-13.922-3.291c-9.299-1.902-18.711-2.725-28.202-2.573
		c-8.178,0.131-16.321,0.781-24.305,2.58c-6.619,1.491-13.287,2.96-19.698,5.134c-14.338,4.863-27.536,11.98-39.595,21.201
		c-9.459,7.233-17.898,15.488-25.304,24.785c-7.63,9.579-13.979,19.98-18.755,31.259c-2.339,5.523-4.276,11.237-6.074,16.967
		c-5.235,16.687-6.542,33.849-5.214,51.179c0.525,6.853,1.884,13.682,3.369,20.41c1.281,5.804,2.972,11.562,5.023,17.143
		c4.312,11.732,10.189,22.684,17.5,32.85c7.842,10.904,17.02,20.525,27.551,28.854c9.201,7.277,19.163,13.33,29.863,18.115
		c8.012,3.583,16.293,6.479,24.853,8.45c12.671,2.919,25.523,4.345,38.53,3.736c7.682-0.359,15.344-1.206,22.869-2.83
		c10.314-2.226,20.295-5.483,29.922-9.892c19.491-8.926,36.021-21.671,49.812-38.023c7.598-9.011,13.94-18.853,19.012-29.486
		c3.214-6.742,5.964-13.672,8.044-20.869c2.035-7.047,3.533-14.179,4.569-21.442c1.562-10.937,1.638-21.902,0.576-32.838
		c-0.619-6.385-1.829-12.761-3.366-18.995c-1.608-6.524-3.878-12.89-5.966-19.289c-0.607-1.861-1.544-3.622-2.405-5.393
		c-0.677-1.391-0.572-2.428,0.669-3.553c9.312-8.441,18.562-16.947,27.838-25.428C340.062,201.281,340.61,200.897,341.417,200.258z"
		/>
	<path fill-rule="evenodd" clip-rule="evenodd" fill="#D5016B" d="M181.999,194.287c5.838,0.579,11.333,0.997,16.787,1.716
		c2.92,0.385,5.781,1.248,8.649,1.971c1.493,0.376,1.61,0.958,0.556,2.115c-5.247,5.757-10.485,11.522-15.748,17.265
		c-5.222,5.697-10.481,11.36-15.694,17.066c-0.888,0.972-1.865,1.451-3.197,1.656c-5.897,0.908-11.469,2.892-16.681,5.761
		c-7.533,4.147-13.759,9.793-18.562,16.951c-3.377,5.034-5.789,10.48-7.386,16.357c-1.665,6.124-2.136,12.338-1.481,18.549
		c1.323,12.541,6.449,23.396,15.403,32.377c5.205,5.223,11.238,9.217,18.084,11.872c7.854,3.048,15.989,4.257,24.452,3.433
		c7.737-0.754,14.935-3.035,21.609-6.916c8.384-4.876,14.997-11.563,19.737-20.054c2.696-4.829,4.688-9.917,5.724-15.377
		c0.139-0.733,0.762-1.475,1.345-2.012c11.766-10.833,23.559-21.638,35.349-32.444c1.284-1.177,1.826-1.031,2.22,0.529
		c2.419,9.596,3.409,19.343,2.771,29.214c-0.422,6.535-1.576,12.958-3.311,19.298c-2.223,8.116-5.53,15.748-9.814,22.947
		c-5.705,9.59-12.9,17.926-21.605,24.943c-7.03,5.671-14.725,10.254-23.038,13.73c-5.405,2.262-11.036,3.86-16.778,5.153
		c-9.247,2.082-18.582,2.229-27.929,1.573c-4.532-0.316-9.058-1.274-13.485-2.354c-4.266-1.039-8.476-2.418-12.581-3.986
		c-8.585-3.277-16.445-7.889-23.618-13.643c-10.006-8.026-18.178-17.621-24.264-28.919c-3.448-6.401-6.091-13.137-7.994-20.188
		c-2.292-8.496-3.427-17.117-3.273-25.883c0.156-8.866,1.56-17.55,4.176-26.062c4.574-14.885,12.391-27.793,23.335-38.795
		c7.335-7.375,15.701-13.357,25.073-17.954c7.695-3.774,15.729-6.536,24.132-8.011C170.673,195.165,176.509,194.869,181.999,194.287
		z"/>
</g>
<path fill-rule="evenodd" clip-rule="evenodd" fill="#572582" d="M430.785,76.333c8.098,0.156,17.933,0.152,27.747,0.589
	c9.309,0.415,14.63,9.184,13.075,17.323c-0.735,3.846-3.197,6.822-5.919,9.519c-11.816,11.71-23.635,23.418-35.488,35.089
	c-4.771,4.697-9.625,9.309-14.459,13.942c-5.054,4.844-11.221,7.062-18.096,7.12c-14.511,0.123-29.027,0.241-43.533-0.016
	c-6.089-0.108-10.786,1.852-15.217,5.978c-15.58,14.51-31.422,28.737-47.124,43.116c-14.095,12.908-28.112,25.901-42.207,38.809
	c-14.287,13.083-28.594,26.146-42.966,39.136c-3.924,3.547-8.071,6.853-12.193,10.173c-3.569,2.876-7.59,2.886-11.629,1.227
	c-5.813-2.388-9.131-6.861-10.067-13.024c-0.521-3.425,0.617-6.425,2.909-9.029c7.063-8.027,13.972-16.194,21.168-24.102
	c17.446-19.168,35.027-38.213,52.541-57.318c12.668-13.819,25.324-27.648,37.97-41.487c7.007-7.667,13.987-15.357,20.969-23.046
	c2.322-2.559,3.566-5.557,3.573-9.042c0.025-15.5,0.055-31,0.085-46.5c0.016-7.87,2.868-14.497,8.436-20.091
	c8.47-8.509,16.769-17.186,25.2-25.732c8.088-8.2,16.196-16.383,24.411-24.455c3.227-3.169,7.161-4.868,11.864-4.443
	c5.121,0.462,11.03,4.111,12.375,9.808c0.473,2.002,0.889,4.07,0.925,6.116c0.171,9.517,0.227,19.036,0.271,28.554
	c0.043,8.944,0.021,17.888,0.025,26.832c0.002,3.294,1.668,4.964,4.911,4.961C409.913,76.328,419.484,76.333,430.785,76.333z"/>
</svg>
