<?xml version="1.0" encoding="utf-8"?>
<!-- Generator: Adobe Illustrator 16.0.0, SVG Export Plug-In . SVG Version: 6.00 Build 0)  -->
<!DOCTYPE svg PUBLIC "-//W3C//DTD SVG 1.1//EN" "http://www.w3.org/Graphics/SVG/1.1/DTD/svg11.dtd">
<svg version="1.1" id="Layer_1" xmlns="http://www.w3.org/2000/svg" xmlns:xlink="http://www.w3.org/1999/xlink" x="0px" y="0px"
	 width="30px" height="30px" viewBox="0 0 30 30" enable-background="new 0 0 30 30" xml:space="preserve">
<g>
	<defs>
		<circle id="SVGID_25_" cx="15" cy="15" r="15"/>
	</defs>
	<clipPath id="SVGID_2_">
		<use xlink:href="#SVGID_25_"  overflow="visible"/>
	</clipPath>
	<g clip-path="url(#SVGID_2_)">
		<g>
			<defs>
				<rect id="SVGID_27_" y="0" width="30" height="30"/>
			</defs>
			<clipPath id="SVGID_4_">
				<use xlink:href="#SVGID_27_"  overflow="visible"/>
			</clipPath>
			<rect y="0" clip-path="url(#SVGID_4_)" fill="#CE863E" width="30" height="30"/>
		</g>
	</g>
</g>
<g>
	<path fill="#CE863E" d="M15,1c7.72,0,14,6.281,14,14S22.72,29,15,29S1,22.72,1,15S7.28,1,15,1 M15,0C6.716,0,0,6.715,0,15
		c0,8.284,6.716,15,15,15c8.285,0,15-6.716,15-15C30,6.715,23.285,0,15,0L15,0z"/>
</g>
<g>
	<text transform="matrix(1 0 0 1 8.1523 25.6685)" fill="#FFFFFF" font-family="'Avenir-Roman'" font-size="28.1148">?</text>
</g>
</svg>
