<?xml version="1.0" encoding="utf-8"?>
<!-- Generator: Adobe Illustrator 16.0.0, SVG Export Plug-In . SVG Version: 6.00 Build 0)  -->
<!DOCTYPE svg PUBLIC "-//W3C//DTD SVG 1.1//EN" "http://www.w3.org/Graphics/SVG/1.1/DTD/svg11.dtd">
<svg version="1.1" id="Layer_1" xmlns="http://www.w3.org/2000/svg" xmlns:xlink="http://www.w3.org/1999/xlink" x="0px" y="0px"
	 width="30px" height="30px" viewBox="0 0 30 30" enable-background="new 0 0 30 30" xml:space="preserve">
<g>
	<defs>
		<circle id="SVGID_9_" cx="15" cy="15" r="15"/>
	</defs>
	<clipPath id="SVGID_2_">
		<use xlink:href="#SVGID_9_"  overflow="visible"/>
	</clipPath>
	<g clip-path="url(#SVGID_2_)">
		<g>
			<defs>
				<rect id="SVGID_11_" y="0" width="30" height="30"/>
			</defs>
			<clipPath id="SVGID_4_">
				<use xlink:href="#SVGID_11_"  overflow="visible"/>
			</clipPath>
			<g clip-path="url(#SVGID_4_)">
				<polygon fill="none" stroke="#000000" stroke-width="0.75" stroke-miterlimit="10" points="32.565,18.999 -3.141,18.999 
					-3.141,11.83 33.905,11.829 				"/>
				<g>
					<path fill-rule="evenodd" clip-rule="evenodd" fill="none" stroke="#000000" stroke-width="2.3256" stroke-miterlimit="10" d="
						M-5.683,15.427c0.558,1.327,1.61,2.221,2.815,2.222c1.207-0.001,2.258-0.896,2.817-2.222c0.559-1.329,1.611-2.224,2.816-2.225
						c1.206,0,2.257,0.895,2.815,2.219c0.56,1.328,1.611,2.223,2.816,2.22c1.207,0.003,2.259-0.892,2.818-2.219
						c0.56-1.329,1.612-2.223,2.817-2.222c1.204-0.001,2.256,0.893,2.816,2.219c0.559,1.328,1.609,2.221,2.816,2.22
						c1.206,0.002,2.256-0.892,2.817-2.219c0.559-1.327,1.609-2.223,2.815-2.225c1.206,0.003,2.257,0.896,2.816,2.222
						c0.559,1.329,1.61,2.221,2.817,2.221c1.207,0,2.256-0.893,2.817-2.225c0.558-1.323,1.61-2.22,2.816-2.218
						c1.207-0.001,2.257,0.892,2.814,2.217c0.56,1.328,1.613,2.224,2.817,2.223c1.206-0.001,2.258-0.895,2.817-2.222
						c0.559-1.329,1.61-2.222,2.816-2.222c1.207,0,2.256,0.893,2.817,2.219c0.558,1.328,1.61,2.222,2.814,2.223
						c1.207-0.003,2.259-0.896,2.818-2.223c0.559-1.326,1.61-2.221,2.815-2.223c1.205,0,2.258,0.896,2.816,2.221"/>
				</g>
				<polyline fill="none" points="-4.986,12.348 16.284,-8.922 37.44,12.234 16.17,33.505 				"/>
			</g>
		</g>
	</g>
</g>
<g>
	<defs>
		<circle id="SVGID_17_" cx="-23" cy="15" r="15"/>
	</defs>
	<clipPath id="SVGID_6_">
		<use xlink:href="#SVGID_17_"  overflow="visible"/>
	</clipPath>
	<g clip-path="url(#SVGID_6_)">
		<g>
			<defs>
				<rect id="SVGID_19_" x="-38" y="0" width="30" height="30"/>
			</defs>
			<clipPath id="SVGID_8_">
				<use xlink:href="#SVGID_19_"  overflow="visible"/>
			</clipPath>
			<g clip-path="url(#SVGID_8_)">
				<g>
					<path fill-rule="evenodd" clip-rule="evenodd" fill="none" stroke="#000000" stroke-width="2.3256" stroke-miterlimit="10" d="
						M-43.683,17.427c0.558,1.327,1.61,2.221,2.815,2.222c1.207-0.001,2.258-0.896,2.817-2.222c0.559-1.329,1.611-2.224,2.816-2.225
						c1.206,0,2.257,0.895,2.815,2.219c0.56,1.328,1.611,2.223,2.816,2.22c1.207,0.003,2.259-0.892,2.818-2.219
						c0.56-1.329,1.612-2.223,2.817-2.222c1.204-0.001,2.256,0.893,2.816,2.219c0.559,1.328,1.609,2.221,2.816,2.22
						c1.206,0.002,2.256-0.892,2.817-2.219c0.559-1.327,1.609-2.223,2.815-2.225c1.206,0.003,2.257,0.896,2.816,2.222
						c0.559,1.329,1.61,2.221,2.817,2.221c1.207,0,2.256-0.893,2.817-2.225c0.558-1.323,1.61-2.22,2.816-2.218
						c1.207-0.001,2.257,0.892,2.814,2.217c0.56,1.328,1.613,2.224,2.817,2.223c1.206-0.001,2.258-0.895,2.817-2.222
						c0.559-1.329,1.61-2.222,2.816-2.222c1.207,0,2.256,0.893,2.817,2.219c0.558,1.328,1.61,2.222,2.814,2.223
						c1.207-0.003,2.259-0.896,2.818-2.223c0.559-1.326,1.61-2.221,2.815-2.223c1.205,0,2.258,0.896,2.816,2.221"/>
				</g>
			</g>
		</g>
	</g>
</g>
</svg>
