<?xml version="1.0" encoding="utf-8"?>
<!-- Generator: Adobe Illustrator 16.0.0, SVG Export Plug-In . SVG Version: 6.00 Build 0)  -->
<!DOCTYPE svg PUBLIC "-//W3C//DTD SVG 1.1//EN" "http://www.w3.org/Graphics/SVG/1.1/DTD/svg11.dtd">
<svg version="1.1" id="Layer_1" xmlns="http://www.w3.org/2000/svg" xmlns:xlink="http://www.w3.org/1999/xlink" x="0px" y="0px"
	 width="30px" height="30px" viewBox="0 0 30 30" enable-background="new 0 0 30 30" xml:space="preserve">
<g>
	<defs>
		<circle id="SVGID_21_" cx="15" cy="15" r="15"/>
	</defs>
	<clipPath id="SVGID_2_">
		<use xlink:href="#SVGID_21_"  overflow="visible"/>
	</clipPath>
	<g clip-path="url(#SVGID_2_)">
		<g>
			<defs>
				<rect id="SVGID_23_" x="0" width="30" height="30"/>
			</defs>
			<clipPath id="SVGID_4_">
				<use xlink:href="#SVGID_23_"  overflow="visible"/>
			</clipPath>
			<g clip-path="url(#SVGID_4_)">
				<line fill="none" stroke="#000000" stroke-width="0.75" stroke-miterlimit="10" x1="0.45" y1="7.118" x2="37.495" y2="7.118"/>
				<polygon fill="none" stroke="#000000" stroke-width="0.75" stroke-miterlimit="10" points="32.565,18.707 -3.141,18.707 
					-3.141,11.538 33.904,11.538 				"/>
				<g>
					<path fill-rule="evenodd" clip-rule="evenodd" fill="none" stroke="#000000" stroke-width="2.3256" stroke-miterlimit="10" d="
						M-5.683,15.135c0.558,1.327,1.61,2.221,2.815,2.222c1.207-0.001,2.258-0.896,2.817-2.222c0.559-1.329,1.611-2.224,2.816-2.225
						c1.206,0,2.257,0.895,2.815,2.219c0.56,1.328,1.611,2.223,2.816,2.22c1.207,0.003,2.259-0.892,2.818-2.219
						c0.56-1.329,1.612-2.223,2.817-2.222c1.204-0.001,2.256,0.893,2.816,2.219c0.559,1.328,1.609,2.221,2.816,2.22
						c1.206,0.002,2.256-0.892,2.817-2.219c0.559-1.327,1.609-2.223,2.815-2.225c1.206,0.003,2.257,0.896,2.816,2.222
						c0.559,1.329,1.61,2.221,2.817,2.221c1.207,0,2.256-0.893,2.817-2.225c0.558-1.323,1.61-2.22,2.816-2.218
						c1.207-0.001,2.257,0.892,2.814,2.217c0.56,1.328,1.613,2.224,2.817,2.223c1.206-0.001,2.258-0.895,2.817-2.222
						c0.559-1.329,1.61-2.222,2.816-2.222c1.207,0,2.256,0.893,2.817,2.219c0.558,1.328,1.61,2.222,2.814,2.223
						c1.207-0.003,2.259-0.896,2.818-2.223c0.559-1.326,1.61-2.221,2.815-2.223c1.205,0,2.258,0.896,2.816,2.221"/>
				</g>
				<g>
					<path fill-rule="evenodd" clip-rule="evenodd" fill="none" stroke="#000000" stroke-width="1.3621" stroke-miterlimit="10" d="
						M-2.478,9.295c0.326,0.778,0.943,1.301,1.648,1.301c0.707,0,1.323-0.524,1.65-1.301c0.327-0.778,0.943-1.302,1.648-1.303
						c0.707,0,1.323,0.524,1.649,1.299c0.328,0.778,0.944,1.302,1.649,1.301c0.707,0.001,1.323-0.523,1.65-1.3
						c0.328-0.778,0.944-1.302,1.65-1.302c0.705,0,1.322,0.523,1.649,1.3c0.327,0.777,0.943,1.301,1.649,1.3
						c0.707,0.001,1.322-0.523,1.65-1.3c0.327-0.777,0.942-1.302,1.649-1.303c0.706,0.001,1.322,0.525,1.649,1.301
						c0.327,0.778,0.943,1.301,1.65,1.3c0.707,0,1.321-0.523,1.65-1.303c0.327-0.774,0.943-1.3,1.649-1.299
						c0.707,0,1.322,0.523,1.648,1.298c0.328,0.778,0.944,1.303,1.649,1.302c0.707,0,1.323-0.524,1.65-1.302
						c0.327-0.778,0.943-1.301,1.649-1.301c0.707,0,1.321,0.523,1.65,1.299c0.326,0.778,0.943,1.301,1.648,1.302
						c0.707-0.002,1.322-0.524,1.65-1.302c0.328-0.776,0.943-1.301,1.649-1.302c0.706,0,1.323,0.524,1.649,1.301"/>
				</g>
				
					<line fill="none" stroke="#000000" stroke-width="0.75" stroke-miterlimit="10" x1="35.568" y1="22.777" x2="-1.478" y2="22.777"/>
				<g>
					<path fill-rule="evenodd" clip-rule="evenodd" fill="none" stroke="#000000" stroke-width="1.3621" stroke-miterlimit="10" d="
						M38.496,20.6c-0.326-0.778-0.943-1.301-1.648-1.301c-0.707,0-1.323,0.524-1.65,1.301c-0.327,0.778-0.943,1.302-1.648,1.303
						c-0.707,0-1.323-0.524-1.649-1.299c-0.328-0.778-0.944-1.302-1.649-1.301c-0.707-0.001-1.323,0.523-1.65,1.3
						c-0.328,0.778-0.944,1.302-1.65,1.302c-0.705,0-1.322-0.523-1.649-1.3c-0.327-0.777-0.943-1.301-1.649-1.3
						c-0.707-0.001-1.322,0.523-1.65,1.3c-0.327,0.777-0.942,1.302-1.649,1.303c-0.706-0.001-1.322-0.525-1.649-1.301
						c-0.327-0.778-0.943-1.301-1.65-1.3c-0.707,0-1.321,0.523-1.65,1.303c-0.327,0.774-0.943,1.3-1.649,1.299
						c-0.707,0-1.322-0.523-1.648-1.298c-0.328-0.778-0.944-1.303-1.649-1.302c-0.707,0-1.323,0.524-1.65,1.302
						c-0.327,0.778-0.943,1.301-1.649,1.301c-0.707,0-1.321-0.523-1.65-1.299c-0.326-0.778-0.943-1.301-1.648-1.302
						c-0.707,0.002-1.322,0.524-1.65,1.302c-0.328,0.776-0.943,1.301-1.649,1.302c-0.706,0-1.323-0.524-1.649-1.301"/>
				</g>
				<polyline fill="none" points="-4.987,12.057 16.283,-9.213 37.44,11.943 16.17,33.213 				"/>
			</g>
		</g>
	</g>
</g>
</svg>
