<?xml version="1.0" encoding="utf-8"?>
<!-- Generator: Adobe Illustrator 16.0.0, SVG Export Plug-In . SVG Version: 6.00 Build 0)  -->
<!DOCTYPE svg PUBLIC "-//W3C//DTD SVG 1.1//EN" "http://www.w3.org/Graphics/SVG/1.1/DTD/svg11.dtd">
<svg version="1.1" id="Layer_1" xmlns="http://www.w3.org/2000/svg" xmlns:xlink="http://www.w3.org/1999/xlink" x="0px" y="0px"
	 width="30px" height="30px" viewBox="0 0 30 30" enable-background="new 0 0 30 30" xml:space="preserve">
<g>
	<path fill-rule="evenodd" clip-rule="evenodd" fill="#73AD2C" d="M579.856,367.201c1.376,2.59,2.73,4.859,3.821,7.248
		c2.538,5.56,5.096,11.117,7.361,16.79c1.611,4.036,2.903,8.216,4.077,12.404c1.567,5.591,2.914,11.245,4.285,16.889
		c0.453,1.864,0.716,3.776,1.015,5.674c2.247,14.239,2.86,28.566,1.779,42.924c-0.506,6.723-1.424,13.442-2.64,20.074
		c-1.083,5.905-2.726,11.717-4.324,17.515c-1.171,4.243-2.479,8.47-4.07,12.571c-2.022,5.212-4.135,10.42-6.674,15.391
		c-3.296,6.454-6.779,12.847-10.662,18.961c-9.95,15.664-22.134,29.423-36.379,41.337c-9.461,7.914-19.593,14.836-30.456,20.689
		c-8.185,4.41-16.618,8.231-25.401,11.308c-7.647,2.677-15.416,4.842-23.333,6.582c-17.89,3.931-35.973,4.71-54.134,3.183
		c-7.947-0.668-15.884-2.032-23.68-3.743c-7.016-1.54-13.861-3.896-20.729-6.058c-7.781-2.451-15.174-5.878-22.4-9.623
		c-13.462-6.976-25.884-15.482-37.255-25.541c-6.983-6.177-13.467-12.827-19.417-19.981c-7.178-8.632-13.748-17.729-18.933-27.705
		c-3.867-7.44-7.591-14.986-10.8-22.726c-2.492-6.011-4.336-12.325-6.019-18.625c-1.738-6.506-2.988-13.146-4.339-19.75
		c-0.499-2.437-0.73-4.934-0.993-7.413c-1.418-13.393-1.577-26.808,0.041-40.176c0.878-7.256,2.103-14.503,3.725-21.628
		c2.326-10.219,5.665-20.139,9.804-29.801c4.51-10.527,9.92-20.555,16.312-30.024c9.311-13.796,20.278-26.159,32.977-36.955
		c9.834-8.36,20.407-15.628,31.758-21.795c7.625-4.143,15.492-7.748,23.618-10.732c5.39-1.98,10.958-3.492,16.481-5.089
		c9.154-2.647,18.52-4.36,27.992-5.114c8.072-0.643,16.204-0.801,24.305-0.727c6.015,0.056,12.045,0.644,18.029,1.339
		c4.579,0.532,9.116,1.506,13.634,2.463c4.413,0.936,8.813,1.972,13.151,3.201c4.087,1.158,8.158,2.441,12.107,3.997
		c5.589,2.201,11.097,4.622,16.568,7.105c3.112,1.412,6.087,3.125,9.116,4.719c1.194,0.629,0.792,1.356,0.101,2.111
		c-3.649,3.983-7.289,7.975-10.932,11.963c-4.905,5.369-9.84,10.71-14.691,16.126c-1.041,1.163-1.794,1.445-3.395,0.786
		c-6.414-2.645-12.859-5.257-19.441-7.431c-4.512-1.489-9.25-2.335-13.922-3.291c-9.299-1.902-18.711-2.725-28.202-2.573
		c-8.178,0.131-16.321,0.781-24.305,2.58c-6.619,1.491-13.287,2.96-19.698,5.134c-14.338,4.863-27.536,11.98-39.595,21.201
		c-9.459,7.233-17.898,15.488-25.304,24.785c-7.63,9.579-13.979,19.98-18.755,31.259c-2.339,5.523-4.276,11.237-6.074,16.967
		c-5.235,16.687-6.542,33.849-5.214,51.179c0.525,6.853,1.884,13.682,3.369,20.41c1.281,5.804,2.972,11.562,5.023,17.143
		c4.312,11.732,10.189,22.684,17.5,32.85c7.842,10.904,17.02,20.525,27.551,28.854c9.201,7.277,19.163,13.33,29.863,18.115
		c8.012,3.583,16.293,6.479,24.853,8.45c12.671,2.919,25.523,4.345,38.53,3.736c7.682-0.359,15.344-1.206,22.869-2.83
		c10.314-2.226,20.295-5.483,29.922-9.892c19.491-8.926,36.021-21.671,49.812-38.023c7.598-9.011,13.94-18.853,19.012-29.486
		c3.214-6.742,5.964-13.672,8.044-20.869c2.035-7.047,3.533-14.179,4.569-21.442c1.562-10.937,1.638-21.902,0.576-32.838
		c-0.619-6.385-1.829-12.761-3.366-18.995c-1.608-6.524-3.878-12.89-5.966-19.289c-0.607-1.861-1.544-3.622-2.405-5.393
		c-0.677-1.391-0.572-2.428,0.669-3.553c9.312-8.441,18.562-16.947,27.838-25.428C578.501,368.225,579.049,367.841,579.856,367.201z
		"/>
	<path fill-rule="evenodd" clip-rule="evenodd" fill="#D5016B" d="M420.438,361.23c5.838,0.579,11.333,0.997,16.787,1.716
		c2.92,0.385,5.781,1.248,8.649,1.971c1.493,0.376,1.61,0.958,0.556,2.115c-5.247,5.757-10.485,11.522-15.748,17.265
		c-5.222,5.697-10.481,11.36-15.694,17.066c-0.888,0.972-1.865,1.451-3.197,1.656c-5.897,0.908-11.469,2.892-16.681,5.761
		c-7.533,4.147-13.759,9.793-18.562,16.951c-3.377,5.034-5.789,10.48-7.386,16.357c-1.665,6.124-2.136,12.338-1.481,18.549
		c1.323,12.541,6.449,23.396,15.403,32.377c5.205,5.223,11.238,9.217,18.084,11.872c7.854,3.048,15.989,4.257,24.452,3.433
		c7.737-0.754,14.935-3.035,21.609-6.916c8.384-4.876,14.997-11.563,19.737-20.054c2.696-4.829,4.688-9.917,5.724-15.377
		c0.139-0.733,0.762-1.475,1.345-2.012c11.766-10.833,23.559-21.638,35.349-32.444c1.284-1.177,1.826-1.031,2.22,0.529
		c2.419,9.596,3.409,19.343,2.771,29.214c-0.422,6.535-1.576,12.958-3.311,19.298c-2.223,8.116-5.53,15.748-9.814,22.947
		c-5.705,9.59-12.9,17.926-21.605,24.943c-7.03,5.671-14.725,10.254-23.038,13.73c-5.405,2.262-11.036,3.86-16.778,5.153
		c-9.247,2.082-18.582,2.229-27.929,1.573c-4.532-0.316-9.058-1.274-13.485-2.354c-4.266-1.039-8.476-2.418-12.581-3.986
		c-8.585-3.277-16.445-7.889-23.618-13.643c-10.006-8.026-18.178-17.621-24.264-28.919c-3.448-6.401-6.091-13.137-7.994-20.188
		c-2.292-8.496-3.427-17.117-3.273-25.883c0.156-8.866,1.56-17.55,4.176-26.062c4.574-14.885,12.391-27.793,23.335-38.795
		c7.335-7.375,15.701-13.357,25.073-17.954c7.695-3.774,15.729-6.536,24.132-8.011C409.112,362.108,414.948,361.812,420.438,361.23z
		"/>
</g>
<path fill-rule="evenodd" clip-rule="evenodd" fill="#572582" d="M669.224,243.276c8.098,0.156,17.933,0.152,27.747,0.589
	c9.309,0.415,14.63,9.184,13.075,17.323c-0.735,3.846-3.197,6.822-5.919,9.519c-11.816,11.71-23.635,23.418-35.488,35.089
	c-4.771,4.697-9.625,9.309-14.459,13.942c-5.054,4.844-11.221,7.062-18.096,7.12c-14.511,0.123-29.027,0.241-43.533-0.016
	c-6.089-0.108-10.786,1.852-15.217,5.978c-15.58,14.51-31.422,28.737-47.124,43.116c-14.095,12.908-28.112,25.901-42.207,38.809
	c-14.287,13.083-28.594,26.146-42.966,39.136c-3.924,3.547-8.071,6.853-12.193,10.173c-3.569,2.876-7.59,2.886-11.629,1.227
	c-5.813-2.388-9.131-6.861-10.067-13.024c-0.521-3.425,0.617-6.425,2.909-9.029c7.063-8.027,13.972-16.194,21.168-24.102
	c17.446-19.168,35.027-38.213,52.541-57.318c12.668-13.819,25.324-27.648,37.97-41.487c7.007-7.667,13.987-15.357,20.969-23.046
	c2.322-2.559,3.566-5.557,3.573-9.042c0.025-15.5,0.055-31,0.085-46.5c0.016-7.87,2.868-14.497,8.436-20.091
	c8.47-8.509,16.769-17.186,25.2-25.732c8.088-8.2,16.196-16.383,24.411-24.455c3.227-3.169,7.161-4.868,11.864-4.443
	c5.121,0.462,11.03,4.111,12.375,9.808c0.473,2.002,0.889,4.07,0.925,6.116c0.171,9.517,0.227,19.036,0.271,28.554
	c0.043,8.944,0.021,17.888,0.025,26.832c0.002,3.294,1.668,4.964,4.911,4.961C648.352,243.271,657.923,243.276,669.224,243.276z"/>
<g>
	<path fill-rule="evenodd" clip-rule="evenodd" d="M579.856-174.799c1.376,2.59,2.73,4.859,3.821,7.248
		c2.538,5.56,5.096,11.117,7.361,16.79c1.611,4.036,2.903,8.216,4.077,12.404c1.567,5.591,2.914,11.245,4.285,16.889
		c0.453,1.864,0.716,3.776,1.015,5.674c2.247,14.239,2.86,28.566,1.779,42.924c-0.506,6.723-1.424,13.442-2.64,20.074
		c-1.083,5.905-2.726,11.717-4.324,17.515c-1.171,4.243-2.479,8.47-4.07,12.571c-2.022,5.212-4.135,10.42-6.674,15.391
		c-3.296,6.454-6.779,12.847-10.662,18.961c-9.95,15.664-22.134,29.423-36.379,41.337c-9.461,7.914-19.593,14.836-30.456,20.689
		c-8.185,4.41-16.618,8.231-25.401,11.308c-7.647,2.677-15.416,4.842-23.333,6.582c-17.89,3.931-35.973,4.71-54.134,3.183
		c-7.947-0.668-15.884-2.032-23.68-3.743c-7.016-1.54-13.861-3.896-20.729-6.058c-7.781-2.451-15.174-5.878-22.4-9.623
		c-13.463-6.976-25.885-15.482-37.256-25.541c-6.982-6.177-13.467-12.827-19.416-19.981c-7.178-8.632-13.748-17.729-18.934-27.705
		c-3.866-7.44-7.59-14.986-10.799-22.726c-2.492-6.011-4.336-12.325-6.02-18.625c-1.738-6.506-2.988-13.146-4.339-19.75
		c-0.499-2.437-0.73-4.934-0.993-7.413c-1.418-13.393-1.576-26.808,0.041-40.176c0.879-7.256,2.104-14.503,3.725-21.628
		c2.326-10.219,5.665-20.139,9.805-29.801c4.51-10.527,9.92-20.555,16.312-30.024c9.311-13.796,20.277-26.159,32.977-36.955
		c9.834-8.36,20.407-15.628,31.758-21.795c7.625-4.143,15.492-7.748,23.618-10.732c5.39-1.98,10.958-3.492,16.481-5.089
		c9.154-2.647,18.52-4.36,27.992-5.114c8.071-0.643,16.203-0.801,24.305-0.727c6.016,0.056,12.045,0.644,18.029,1.339
		c4.579,0.532,9.116,1.506,13.634,2.463c4.413,0.936,8.813,1.972,13.151,3.201c4.087,1.158,8.158,2.441,12.107,3.997
		c5.589,2.201,11.097,4.622,16.568,7.105c3.112,1.412,6.087,3.125,9.116,4.719c1.194,0.629,0.792,1.356,0.101,2.111
		c-3.649,3.983-7.289,7.975-10.932,11.963c-4.905,5.369-9.84,10.71-14.691,16.126c-1.041,1.163-1.794,1.445-3.395,0.786
		c-6.414-2.645-12.859-5.257-19.441-7.431c-4.512-1.489-9.25-2.335-13.922-3.291c-9.299-1.902-18.711-2.725-28.203-2.573
		c-8.178,0.131-16.32,0.781-24.305,2.58c-6.619,1.491-13.287,2.96-19.697,5.134c-14.338,4.863-27.536,11.98-39.596,21.201
		c-9.459,7.233-17.898,15.488-25.305,24.785c-7.63,9.579-13.979,19.98-18.754,31.259c-2.34,5.523-4.277,11.237-6.074,16.967
		c-5.234,16.687-6.543,33.849-5.215,51.179c0.525,6.853,1.885,13.682,3.369,20.41c1.281,5.804,2.973,11.562,5.023,17.143
		c4.312,11.732,10.189,22.684,17.5,32.85c7.842,10.904,17.02,20.525,27.551,28.854c9.201,7.277,19.163,13.33,29.863,18.115
		c8.013,3.583,16.294,6.479,24.854,8.45c12.67,2.919,25.522,4.345,38.529,3.736c7.683-0.359,15.345-1.206,22.869-2.83
		c10.314-2.226,20.295-5.483,29.922-9.892c19.491-8.926,36.021-21.671,49.812-38.023c7.598-9.011,13.94-18.853,19.012-29.486
		c3.214-6.742,5.964-13.672,8.044-20.869c2.035-7.047,3.533-14.179,4.569-21.442c1.562-10.937,1.638-21.902,0.576-32.838
		c-0.619-6.385-1.829-12.761-3.366-18.995c-1.608-6.524-3.878-12.89-5.966-19.289c-0.607-1.861-1.544-3.622-2.405-5.393
		c-0.677-1.391-0.572-2.428,0.669-3.553c9.312-8.441,18.562-16.947,27.838-25.428C578.501-173.775,579.049-174.159,579.856-174.799z
		"/>
	<path fill-rule="evenodd" clip-rule="evenodd" fill="#D5016B" d="M420.438-180.77c5.838,0.579,11.332,0.997,16.787,1.716
		c2.92,0.385,5.78,1.248,8.648,1.971c1.493,0.376,1.61,0.958,0.556,2.115c-5.247,5.757-10.485,11.522-15.748,17.265
		c-5.222,5.697-10.481,11.36-15.694,17.066c-0.889,0.972-1.865,1.451-3.197,1.656c-5.896,0.908-11.469,2.892-16.682,5.761
		c-7.532,4.147-13.758,9.793-18.561,16.951c-3.378,5.034-5.789,10.48-7.387,16.357c-1.664,6.124-2.135,12.338-1.48,18.549
		c1.322,12.541,6.449,23.396,15.403,32.377c5.205,5.223,11.238,9.217,18.084,11.872c7.854,3.048,15.989,4.257,24.452,3.433
		c7.736-0.754,14.935-3.035,21.609-6.916c8.385-4.876,14.997-11.563,19.737-20.054c2.696-4.829,4.688-9.917,5.724-15.377
		c0.139-0.733,0.762-1.475,1.345-2.012c11.766-10.833,23.559-21.638,35.349-32.444c1.284-1.177,1.826-1.031,2.22,0.529
		c2.419,9.596,3.409,19.343,2.771,29.214c-0.422,6.535-1.576,12.958-3.311,19.298c-2.223,8.116-5.53,15.748-9.814,22.947
		c-5.705,9.59-12.9,17.926-21.605,24.943c-7.03,5.671-14.725,10.254-23.038,13.73c-5.404,2.262-11.035,3.86-16.777,5.153
		c-9.247,2.082-18.582,2.229-27.929,1.573c-4.532-0.316-9.058-1.274-13.485-2.354c-4.266-1.039-8.476-2.418-12.581-3.986
		c-8.585-3.277-16.444-7.889-23.618-13.643c-10.006-8.026-18.178-17.621-24.264-28.919c-3.447-6.401-6.092-13.137-7.994-20.188
		c-2.292-8.496-3.427-17.117-3.273-25.883c0.156-8.866,1.561-17.55,4.176-26.062c4.574-14.885,12.392-27.793,23.336-38.795
		c7.335-7.375,15.701-13.357,25.072-17.954c7.695-3.774,15.73-6.536,24.133-8.011C409.112-179.892,414.948-180.188,420.438-180.77z"
		/>
	<path fill-rule="evenodd" clip-rule="evenodd" d="M669.224-298.724c8.098,0.156,17.933,0.152,27.747,0.589
		c9.309,0.415,14.63,9.184,13.075,17.323c-0.735,3.846-3.197,6.822-5.919,9.519c-11.816,11.71-23.635,23.418-35.488,35.089
		c-4.771,4.697-9.625,9.309-14.459,13.942c-5.054,4.844-11.221,7.062-18.096,7.12c-14.511,0.123-29.027,0.241-43.533-0.016
		c-6.089-0.108-10.786,1.852-15.217,5.978c-15.58,14.51-31.422,28.737-47.124,43.116c-14.095,12.908-28.112,25.901-42.207,38.809
		c-14.287,13.083-28.594,26.146-42.966,39.136c-3.924,3.547-8.071,6.853-12.193,10.173c-3.568,2.876-7.59,2.886-11.629,1.227
		c-5.812-2.388-9.131-6.861-10.066-13.024c-0.521-3.425,0.617-6.425,2.908-9.029c7.062-8.027,13.973-16.194,21.168-24.102
		c17.446-19.168,35.027-38.213,52.541-57.318c12.668-13.819,25.324-27.648,37.97-41.487c7.007-7.667,13.987-15.357,20.969-23.046
		c2.322-2.559,3.566-5.557,3.573-9.042c0.025-15.5,0.055-31,0.085-46.5c0.016-7.87,2.868-14.497,8.436-20.091
		c8.47-8.509,16.769-17.186,25.2-25.732c8.088-8.2,16.196-16.383,24.411-24.455c3.227-3.169,7.161-4.868,11.864-4.443
		c5.121,0.462,11.03,4.111,12.375,9.808c0.473,2.002,0.889,4.07,0.925,6.116c0.171,9.517,0.227,19.036,0.271,28.554
		c0.043,8.944,0.021,17.888,0.025,26.832c0.002,3.294,1.668,4.964,4.911,4.961C648.352-298.729,657.923-298.724,669.224-298.724z"/>
</g>
<path fill-rule="evenodd" clip-rule="evenodd" d="M1118.559-174.799c1.376,2.59,2.73,4.859,3.821,7.248
	c2.538,5.56,5.096,11.117,7.361,16.79c1.611,4.036,2.903,8.216,4.077,12.404c1.567,5.591,2.914,11.245,4.285,16.889
	c0.453,1.864,0.716,3.776,1.015,5.674c2.247,14.239,2.86,28.566,1.779,42.924c-0.506,6.723-1.424,13.442-2.64,20.074
	c-1.083,5.905-2.726,11.717-4.324,17.515c-1.171,4.243-2.479,8.47-4.07,12.571c-2.022,5.212-4.135,10.42-6.674,15.391
	c-3.296,6.454-6.779,12.847-10.662,18.961c-9.95,15.664-22.134,29.423-36.379,41.337c-9.461,7.914-19.593,14.836-30.456,20.689
	c-8.185,4.41-16.618,8.231-25.401,11.308c-7.647,2.677-15.416,4.842-23.333,6.582c-17.89,3.931-35.973,4.71-54.134,3.183
	c-7.947-0.668-15.884-2.032-23.68-3.743c-7.016-1.54-13.861-3.896-20.729-6.058c-7.781-2.451-15.174-5.878-22.4-9.623
	c-13.463-6.976-25.885-15.482-37.256-25.541c-6.982-6.177-13.467-12.827-19.416-19.981c-7.178-8.632-13.748-17.729-18.934-27.705
	c-3.866-7.44-7.59-14.986-10.799-22.726c-2.492-6.011-4.336-12.325-6.02-18.625c-1.738-6.506-2.988-13.146-4.339-19.75
	c-0.499-2.437-0.73-4.934-0.993-7.413c-1.418-13.393-1.576-26.808,0.041-40.176c0.879-7.256,2.104-14.503,3.725-21.628
	c2.326-10.219,5.665-20.139,9.805-29.801c4.51-10.527,9.92-20.555,16.312-30.024c9.311-13.796,20.277-26.159,32.977-36.955
	c9.834-8.36,20.407-15.628,31.758-21.795c7.625-4.143,15.492-7.748,23.618-10.732c5.39-1.98,10.958-3.492,16.481-5.089
	c9.154-2.647,18.52-4.36,27.992-5.114c8.071-0.643,16.203-0.801,24.305-0.727c6.016,0.056,12.045,0.644,18.029,1.339
	c4.579,0.532,9.116,1.506,13.634,2.463c4.413,0.936,8.813,1.972,13.151,3.201c4.087,1.158,8.158,2.441,12.107,3.997
	c5.589,2.201,11.097,4.622,16.568,7.105c3.112,1.412,6.087,3.125,9.116,4.719c1.194,0.629,0.792,1.356,0.101,2.111
	c-3.649,3.983-7.289,7.975-10.932,11.963c-4.905,5.369-9.84,10.71-14.691,16.126c-1.041,1.163-1.794,1.445-3.395,0.786
	c-6.414-2.645-12.859-5.257-19.441-7.431c-4.512-1.489-9.25-2.335-13.922-3.291c-9.299-1.902-18.711-2.725-28.203-2.573
	c-8.178,0.131-16.32,0.781-24.305,2.58c-6.619,1.491-13.287,2.96-19.697,5.134c-14.338,4.863-27.536,11.98-39.596,21.201
	c-9.459,7.233-17.898,15.488-25.305,24.785c-7.63,9.579-13.979,19.98-18.754,31.259c-2.34,5.523-4.277,11.237-6.074,16.967
	c-5.234,16.687-6.543,33.849-5.215,51.179c0.525,6.853,1.885,13.682,3.369,20.41c1.281,5.804,2.973,11.562,5.023,17.143
	c4.312,11.732,10.189,22.684,17.5,32.85c7.842,10.904,17.02,20.525,27.551,28.854c9.201,7.277,19.163,13.33,29.863,18.115
	c8.013,3.583,16.294,6.479,24.854,8.45c12.67,2.919,25.522,4.345,38.529,3.736c7.683-0.359,15.345-1.206,22.869-2.83
	c10.314-2.226,20.295-5.483,29.922-9.892c19.491-8.926,36.021-21.671,49.812-38.023c7.598-9.011,13.94-18.853,19.012-29.486
	c3.214-6.742,5.964-13.672,8.044-20.869c2.035-7.047,3.533-14.179,4.569-21.442c1.562-10.937,1.638-21.902,0.576-32.838
	c-0.619-6.385-1.829-12.761-3.366-18.995c-1.608-6.524-3.878-12.89-5.966-19.289c-0.607-1.861-1.544-3.622-2.405-5.393
	c-0.677-1.391-0.572-2.428,0.669-3.553c9.312-8.441,18.562-16.947,27.838-25.428
	C1117.205-173.775,1117.752-174.159,1118.559-174.799z"/>
<path fill-rule="evenodd" clip-rule="evenodd" d="M959.141-180.77c5.838,0.579,11.332,0.997,16.787,1.716
	c2.92,0.385,5.78,1.248,8.648,1.971c1.493,0.376,1.61,0.958,0.556,2.115c-5.247,5.757-10.485,11.522-15.748,17.265
	c-5.222,5.697-10.481,11.36-15.694,17.066c-0.889,0.972-1.865,1.451-3.197,1.656c-5.896,0.908-11.469,2.892-16.682,5.761
	c-7.532,4.147-13.758,9.793-18.561,16.951c-3.378,5.034-5.789,10.48-7.387,16.357c-1.664,6.124-2.135,12.338-1.48,18.549
	c1.322,12.541,6.449,23.396,15.403,32.377c5.205,5.223,11.238,9.217,18.084,11.872c7.854,3.048,15.989,4.257,24.452,3.433
	c7.736-0.754,14.935-3.035,21.609-6.916c8.385-4.876,14.997-11.563,19.737-20.054c2.696-4.829,4.688-9.917,5.724-15.377
	c0.139-0.733,0.762-1.475,1.345-2.012c11.766-10.833,23.559-21.638,35.349-32.444c1.284-1.177,1.826-1.031,2.22,0.529
	c2.419,9.596,3.409,19.343,2.771,29.214c-0.422,6.535-1.576,12.958-3.311,19.298c-2.223,8.116-5.53,15.748-9.814,22.947
	c-5.705,9.59-12.9,17.926-21.605,24.943c-7.03,5.671-14.725,10.254-23.038,13.73c-5.404,2.262-11.035,3.86-16.777,5.153
	c-9.247,2.082-18.582,2.229-27.929,1.573c-4.532-0.316-9.058-1.274-13.485-2.354c-4.266-1.039-8.476-2.418-12.581-3.986
	c-8.585-3.277-16.444-7.889-23.618-13.643c-10.006-8.026-18.178-17.621-24.264-28.919c-3.447-6.401-6.092-13.137-7.994-20.188
	c-2.292-8.496-3.427-17.117-3.273-25.883c0.156-8.866,1.561-17.55,4.176-26.062c4.574-14.885,12.392-27.793,23.336-38.795
	c7.335-7.375,15.701-13.357,25.072-17.954c7.695-3.774,15.73-6.536,24.133-8.011C947.815-179.892,953.651-180.188,959.141-180.77z"
	/>
<path fill-rule="evenodd" clip-rule="evenodd" d="M1207.927-298.724c8.098,0.156,17.933,0.152,27.747,0.589
	c9.309,0.415,14.63,9.184,13.075,17.323c-0.735,3.846-3.197,6.822-5.919,9.519c-11.816,11.71-23.635,23.418-35.488,35.089
	c-4.771,4.697-9.625,9.309-14.459,13.942c-5.054,4.844-11.221,7.062-18.096,7.12c-14.511,0.123-29.027,0.241-43.533-0.016
	c-6.089-0.108-10.786,1.852-15.217,5.978c-15.58,14.51-31.422,28.737-47.124,43.116c-14.095,12.908-28.112,25.901-42.207,38.809
	c-14.287,13.083-28.594,26.146-42.966,39.136c-3.924,3.547-8.071,6.853-12.193,10.173c-3.568,2.876-7.59,2.886-11.629,1.227
	c-5.812-2.388-9.131-6.861-10.066-13.024c-0.521-3.425,0.617-6.425,2.908-9.029c7.062-8.027,13.973-16.194,21.168-24.102
	c17.446-19.168,35.027-38.213,52.541-57.318c12.668-13.819,25.324-27.648,37.97-41.487c7.007-7.667,13.987-15.357,20.969-23.046
	c2.322-2.559,3.566-5.557,3.573-9.042c0.025-15.5,0.055-31,0.085-46.5c0.016-7.87,2.868-14.497,8.436-20.091
	c8.47-8.509,16.769-17.186,25.2-25.732c8.088-8.2,16.196-16.383,24.411-24.455c3.227-3.169,7.161-4.868,11.864-4.443
	c5.121,0.462,11.03,4.111,12.375,9.808c0.473,2.002,0.889,4.07,0.925,6.116c0.171,9.517,0.227,19.036,0.271,28.554
	c0.043,8.944,0.021,17.888,0.025,26.832c0.002,3.294,1.668,4.964,4.911,4.961C1187.055-298.729,1196.626-298.724,1207.927-298.724z"
	/>
<path fill-rule="evenodd" clip-rule="evenodd" fill="#575756" d="M1118.559,367.201c1.376,2.59,2.73,4.859,3.821,7.248
	c2.538,5.56,5.096,11.117,7.361,16.79c1.611,4.036,2.903,8.216,4.077,12.404c1.567,5.591,2.914,11.245,4.285,16.889
	c0.453,1.864,0.716,3.776,1.015,5.674c2.247,14.239,2.86,28.566,1.779,42.924c-0.506,6.723-1.424,13.442-2.64,20.074
	c-1.083,5.905-2.726,11.717-4.324,17.515c-1.171,4.243-2.479,8.47-4.07,12.571c-2.022,5.212-4.135,10.42-6.674,15.391
	c-3.296,6.454-6.779,12.847-10.662,18.961c-9.95,15.664-22.134,29.423-36.379,41.337c-9.461,7.914-19.593,14.836-30.456,20.689
	c-8.185,4.41-16.618,8.231-25.401,11.308c-7.647,2.677-15.416,4.842-23.333,6.582c-17.89,3.931-35.973,4.71-54.134,3.183
	c-7.947-0.668-15.884-2.032-23.68-3.743c-7.016-1.54-13.861-3.896-20.729-6.058c-7.781-2.451-15.174-5.878-22.4-9.623
	c-13.463-6.976-25.885-15.482-37.256-25.541c-6.982-6.177-13.467-12.827-19.416-19.981c-7.178-8.632-13.748-17.729-18.934-27.705
	c-3.866-7.44-7.59-14.986-10.799-22.726c-2.492-6.011-4.336-12.325-6.02-18.625c-1.738-6.506-2.988-13.146-4.339-19.75
	c-0.499-2.437-0.73-4.934-0.993-7.413c-1.418-13.393-1.576-26.808,0.041-40.176c0.879-7.256,2.104-14.503,3.725-21.628
	c2.326-10.219,5.665-20.139,9.805-29.801c4.51-10.527,9.92-20.555,16.312-30.024c9.311-13.796,20.277-26.159,32.977-36.955
	c9.834-8.36,20.407-15.628,31.758-21.795c7.625-4.143,15.492-7.748,23.618-10.732c5.39-1.98,10.958-3.492,16.481-5.089
	c9.154-2.647,18.52-4.36,27.992-5.114c8.071-0.643,16.203-0.801,24.305-0.727c6.016,0.056,12.045,0.644,18.029,1.339
	c4.579,0.532,9.116,1.506,13.634,2.463c4.413,0.936,8.813,1.972,13.151,3.201c4.087,1.158,8.158,2.441,12.107,3.997
	c5.589,2.201,11.097,4.622,16.568,7.105c3.112,1.412,6.087,3.125,9.116,4.719c1.194,0.629,0.792,1.356,0.101,2.111
	c-3.649,3.983-7.289,7.975-10.932,11.963c-4.905,5.369-9.84,10.71-14.691,16.126c-1.041,1.163-1.794,1.445-3.395,0.786
	c-6.414-2.645-12.859-5.257-19.441-7.431c-4.512-1.489-9.25-2.335-13.922-3.291c-9.299-1.902-18.711-2.725-28.203-2.573
	c-8.178,0.131-16.32,0.781-24.305,2.58c-6.619,1.491-13.287,2.96-19.697,5.134c-14.338,4.863-27.536,11.98-39.596,21.201
	c-9.459,7.233-17.898,15.488-25.305,24.785c-7.63,9.579-13.979,19.98-18.754,31.259c-2.34,5.523-4.277,11.237-6.074,16.967
	c-5.234,16.687-6.543,33.849-5.215,51.179c0.525,6.853,1.885,13.682,3.369,20.41c1.281,5.804,2.973,11.562,5.023,17.143
	c4.312,11.732,10.189,22.684,17.5,32.85c7.842,10.904,17.02,20.525,27.551,28.854c9.201,7.277,19.163,13.33,29.863,18.115
	c8.013,3.583,16.294,6.479,24.854,8.45c12.67,2.919,25.522,4.345,38.529,3.736c7.683-0.359,15.345-1.206,22.869-2.83
	c10.314-2.226,20.295-5.483,29.922-9.892c19.491-8.926,36.021-21.671,49.812-38.023c7.598-9.011,13.94-18.853,19.012-29.486
	c3.214-6.742,5.964-13.672,8.044-20.869c2.035-7.047,3.533-14.179,4.569-21.442c1.562-10.937,1.638-21.902,0.576-32.838
	c-0.619-6.385-1.829-12.761-3.366-18.995c-1.608-6.524-3.878-12.89-5.966-19.289c-0.607-1.861-1.544-3.622-2.405-5.393
	c-0.677-1.391-0.572-2.428,0.669-3.553c9.312-8.441,18.562-16.947,27.838-25.428
	C1117.205,368.225,1117.752,367.841,1118.559,367.201z"/>
<path fill-rule="evenodd" clip-rule="evenodd" fill="#575756" d="M959.141,361.23c5.838,0.579,11.332,0.997,16.787,1.716
	c2.92,0.385,5.78,1.248,8.648,1.971c1.493,0.376,1.61,0.958,0.556,2.115c-5.247,5.757-10.485,11.522-15.748,17.265
	c-5.222,5.697-10.481,11.36-15.694,17.066c-0.889,0.972-1.865,1.451-3.197,1.656c-5.896,0.908-11.469,2.892-16.682,5.761
	c-7.532,4.147-13.758,9.793-18.561,16.951c-3.378,5.034-5.789,10.48-7.387,16.357c-1.664,6.124-2.135,12.338-1.48,18.549
	c1.322,12.541,6.449,23.396,15.403,32.377c5.205,5.223,11.238,9.217,18.084,11.872c7.854,3.048,15.989,4.257,24.452,3.433
	c7.736-0.754,14.935-3.035,21.609-6.916c8.385-4.876,14.997-11.563,19.737-20.054c2.696-4.829,4.688-9.917,5.724-15.377
	c0.139-0.733,0.762-1.475,1.345-2.012c11.766-10.833,23.559-21.638,35.349-32.444c1.284-1.177,1.826-1.031,2.22,0.529
	c2.419,9.596,3.409,19.343,2.771,29.214c-0.422,6.535-1.576,12.958-3.311,19.298c-2.223,8.116-5.53,15.748-9.814,22.947
	c-5.705,9.59-12.9,17.926-21.605,24.943c-7.03,5.671-14.725,10.254-23.038,13.73c-5.404,2.262-11.035,3.86-16.777,5.153
	c-9.247,2.082-18.582,2.229-27.929,1.573c-4.532-0.316-9.058-1.274-13.485-2.354c-4.266-1.039-8.476-2.418-12.581-3.986
	c-8.585-3.277-16.444-7.889-23.618-13.643c-10.006-8.026-18.178-17.621-24.264-28.919c-3.447-6.401-6.092-13.137-7.994-20.188
	c-2.292-8.496-3.427-17.117-3.273-25.883c0.156-8.866,1.561-17.55,4.176-26.062c4.574-14.885,12.392-27.793,23.336-38.795
	c7.335-7.375,15.701-13.357,25.072-17.954c7.695-3.774,15.73-6.536,24.133-8.011C947.815,362.108,953.651,361.812,959.141,361.23z"
	/>
<path fill-rule="evenodd" clip-rule="evenodd" fill="#575756" d="M1207.927,243.276c8.098,0.156,17.933,0.152,27.747,0.589
	c9.309,0.415,14.63,9.184,13.075,17.323c-0.735,3.846-3.197,6.822-5.919,9.519c-11.816,11.71-23.635,23.418-35.488,35.089
	c-4.771,4.697-9.625,9.309-14.459,13.942c-5.054,4.844-11.221,7.062-18.096,7.12c-14.511,0.123-29.027,0.241-43.533-0.016
	c-6.089-0.108-10.786,1.852-15.217,5.978c-15.58,14.51-31.422,28.737-47.124,43.116c-14.095,12.908-28.112,25.901-42.207,38.809
	c-14.287,13.083-28.594,26.146-42.966,39.136c-3.924,3.547-8.071,6.853-12.193,10.173c-3.568,2.876-7.59,2.886-11.629,1.227
	c-5.812-2.388-9.131-6.861-10.066-13.024c-0.521-3.425,0.617-6.425,2.908-9.029c7.062-8.027,13.973-16.194,21.168-24.102
	c17.446-19.168,35.027-38.213,52.541-57.318c12.668-13.819,25.324-27.648,37.97-41.487c7.007-7.667,13.987-15.357,20.969-23.046
	c2.322-2.559,3.566-5.557,3.573-9.042c0.025-15.5,0.055-31,0.085-46.5c0.016-7.87,2.868-14.497,8.436-20.091
	c8.47-8.509,16.769-17.186,25.2-25.732c8.088-8.2,16.196-16.383,24.411-24.455c3.227-3.169,7.161-4.868,11.864-4.443
	c5.121,0.462,11.03,4.111,12.375,9.808c0.473,2.002,0.889,4.07,0.925,6.116c0.171,9.517,0.227,19.036,0.271,28.554
	c0.043,8.944,0.021,17.888,0.025,26.832c0.002,3.294,1.668,4.964,4.911,4.961C1187.055,243.271,1196.626,243.276,1207.927,243.276z"
	/>
<g>
	<path fill-rule="evenodd" clip-rule="evenodd" d="M109.603-206.18c0.044,0.082,0.087,0.154,0.121,0.229
		c0.081,0.176,0.162,0.353,0.233,0.532c0.051,0.127,0.092,0.26,0.129,0.393c0.049,0.177,0.092,0.356,0.136,0.535
		c0.014,0.059,0.022,0.12,0.032,0.18c0.071,0.451,0.091,0.905,0.057,1.36c-0.016,0.213-0.045,0.426-0.084,0.636
		c-0.034,0.187-0.086,0.371-0.137,0.555c-0.037,0.134-0.079,0.269-0.129,0.398c-0.064,0.165-0.131,0.33-0.211,0.487
		c-0.104,0.205-0.215,0.407-0.338,0.601c-0.315,0.497-0.701,0.932-1.152,1.31c-0.3,0.251-0.621,0.47-0.965,0.656
		c-0.259,0.14-0.526,0.261-0.805,0.358c-0.242,0.084-0.488,0.153-0.739,0.208c-0.567,0.125-1.14,0.149-1.715,0.101
		c-0.252-0.021-0.503-0.064-0.75-0.119c-0.222-0.049-0.439-0.124-0.657-0.192c-0.247-0.078-0.48-0.186-0.709-0.305
		c-0.426-0.221-0.82-0.491-1.18-0.809c-0.221-0.196-0.427-0.407-0.615-0.633c-0.228-0.273-0.436-0.562-0.6-0.877
		c-0.123-0.236-0.241-0.475-0.342-0.72c-0.079-0.19-0.137-0.391-0.191-0.59c-0.055-0.206-0.094-0.417-0.137-0.625
		c-0.016-0.078-0.023-0.157-0.032-0.235c-0.044-0.425-0.05-0.85,0.001-1.273c0.028-0.23,0.066-0.459,0.118-0.686
		c0.074-0.323,0.179-0.638,0.311-0.944c0.143-0.333,0.314-0.651,0.517-0.951c0.295-0.437,0.643-0.829,1.045-1.171
		c0.312-0.265,0.646-0.495,1.006-0.69c0.242-0.131,0.491-0.245,0.749-0.34c0.17-0.062,0.347-0.111,0.522-0.161
		c0.29-0.084,0.587-0.138,0.887-0.162c0.256-0.021,0.513-0.025,0.77-0.023c0.19,0.001,0.382,0.021,0.571,0.042
		c0.145,0.017,0.289,0.048,0.432,0.078c0.14,0.03,0.279,0.062,0.417,0.102c0.129,0.037,0.258,0.077,0.383,0.126
		c0.177,0.07,0.352,0.146,0.525,0.225c0.099,0.045,0.193,0.099,0.289,0.15c0.038,0.02,0.025,0.043,0.003,0.066
		c-0.115,0.126-0.231,0.253-0.346,0.379c-0.155,0.17-0.312,0.339-0.465,0.511c-0.033,0.037-0.057,0.046-0.107,0.025
		c-0.204-0.083-0.408-0.167-0.616-0.235c-0.143-0.047-0.293-0.074-0.441-0.104c-0.294-0.06-0.593-0.086-0.894-0.082
		c-0.259,0.004-0.517,0.025-0.77,0.082c-0.209,0.047-0.421,0.094-0.624,0.163c-0.454,0.154-0.873,0.379-1.254,0.671
		c-0.299,0.229-0.567,0.491-0.802,0.785c-0.242,0.304-0.442,0.633-0.594,0.99c-0.074,0.175-0.136,0.356-0.192,0.538
		c-0.166,0.529-0.208,1.072-0.166,1.622c0.017,0.217,0.06,0.434,0.107,0.646c0.041,0.184,0.094,0.366,0.159,0.543
		c0.137,0.372,0.323,0.719,0.554,1.041c0.249,0.345,0.539,0.65,0.873,0.914c0.292,0.23,0.607,0.422,0.946,0.574
		c0.254,0.113,0.516,0.206,0.788,0.268c0.401,0.093,0.808,0.138,1.221,0.119c0.243-0.011,0.486-0.038,0.724-0.09
		c0.327-0.07,0.643-0.173,0.948-0.313c0.617-0.283,1.141-0.687,1.578-1.204c0.241-0.286,0.441-0.598,0.602-0.935
		c0.102-0.213,0.189-0.433,0.255-0.661c0.064-0.223,0.112-0.449,0.145-0.679c0.05-0.347,0.052-0.694,0.019-1.04
		c-0.02-0.203-0.058-0.404-0.107-0.602c-0.051-0.207-0.123-0.408-0.189-0.611c-0.019-0.059-0.049-0.115-0.076-0.171
		c-0.021-0.044-0.018-0.077,0.021-0.113c0.295-0.267,0.588-0.537,0.882-0.805C109.561-206.147,109.578-206.159,109.603-206.18z"/>
	<path fill-rule="evenodd" clip-rule="evenodd" fill="#D5016B" d="M104.553-206.369c0.185,0.019,0.359,0.032,0.532,0.055
		c0.093,0.012,0.184,0.04,0.274,0.062c0.047,0.012,0.051,0.03,0.018,0.067c-0.167,0.182-0.333,0.365-0.499,0.547
		c-0.166,0.181-0.332,0.36-0.498,0.541c-0.028,0.03-0.059,0.046-0.101,0.052c-0.187,0.029-0.363,0.091-0.528,0.183
		c-0.239,0.131-0.436,0.31-0.588,0.537c-0.107,0.16-0.184,0.332-0.234,0.519c-0.053,0.194-0.067,0.391-0.047,0.587
		c0.042,0.397,0.205,0.741,0.488,1.026c0.165,0.166,0.356,0.292,0.573,0.376c0.249,0.097,0.506,0.135,0.774,0.109
		c0.245-0.024,0.473-0.096,0.685-0.219c0.266-0.154,0.476-0.366,0.625-0.635c0.085-0.153,0.148-0.314,0.181-0.487
		c0.004-0.023,0.024-0.046,0.043-0.063c0.373-0.343,0.746-0.686,1.12-1.028c0.041-0.038,0.058-0.033,0.07,0.017
		c0.077,0.304,0.108,0.613,0.088,0.926c-0.013,0.207-0.05,0.41-0.105,0.611c-0.07,0.257-0.175,0.499-0.311,0.727
		c-0.181,0.304-0.408,0.568-0.684,0.79c-0.223,0.18-0.467,0.325-0.73,0.435c-0.171,0.071-0.35,0.122-0.532,0.163
		c-0.293,0.066-0.588,0.071-0.885,0.05c-0.144-0.01-0.287-0.04-0.427-0.075c-0.135-0.033-0.269-0.076-0.398-0.126
		c-0.272-0.104-0.521-0.25-0.748-0.432c-0.317-0.254-0.576-0.559-0.769-0.917c-0.109-0.203-0.193-0.416-0.253-0.639
		c-0.073-0.27-0.109-0.542-0.104-0.82c0.005-0.281,0.05-0.556,0.132-0.826c0.145-0.471,0.393-0.88,0.739-1.229
		c0.232-0.233,0.498-0.423,0.794-0.569c0.244-0.119,0.499-0.207,0.765-0.254C104.194-206.341,104.379-206.351,104.553-206.369z"/>
	<path fill-rule="evenodd" clip-rule="evenodd" d="M112.435-210.106c0.256,0.005,0.568,0.005,0.879,0.019
		c0.295,0.013,0.463,0.291,0.414,0.549c-0.023,0.122-0.101,0.216-0.188,0.302c-0.374,0.371-0.749,0.742-1.124,1.111
		c-0.151,0.149-0.305,0.295-0.458,0.441c-0.16,0.154-0.355,0.224-0.573,0.226c-0.46,0.004-0.92,0.008-1.379,0
		c-0.193-0.003-0.342,0.058-0.482,0.189c-0.494,0.46-0.996,0.911-1.493,1.366c-0.446,0.409-0.89,0.82-1.337,1.229
		c-0.453,0.415-0.906,0.828-1.361,1.24c-0.124,0.112-0.255,0.217-0.386,0.322c-0.113,0.091-0.24,0.091-0.368,0.039
		c-0.185-0.075-0.29-0.217-0.319-0.413c-0.017-0.108,0.019-0.203,0.092-0.286c0.224-0.254,0.443-0.513,0.67-0.763
		c0.553-0.607,1.11-1.21,1.665-1.816c0.401-0.438,0.803-0.876,1.203-1.314c0.222-0.243,0.443-0.486,0.665-0.73
		c0.073-0.081,0.113-0.176,0.113-0.287c0.001-0.491,0.002-0.982,0.003-1.473c0-0.249,0.091-0.459,0.267-0.636
		c0.269-0.27,0.531-0.544,0.798-0.815c0.256-0.26,0.513-0.519,0.773-0.774c0.102-0.101,0.227-0.154,0.376-0.141
		c0.162,0.015,0.35,0.13,0.392,0.311c0.015,0.063,0.028,0.129,0.03,0.193c0.005,0.302,0.007,0.603,0.008,0.905
		c0.001,0.283,0.001,0.567,0.001,0.85c0,0.104,0.053,0.157,0.156,0.157C111.773-210.106,112.076-210.106,112.435-210.106z"/>
</g>
<path fill-rule="evenodd" clip-rule="evenodd" fill="none" stroke="#000000" stroke-miterlimit="10" d="M127.611-255.464
	c0,7.663-6.212,13.875-13.875,13.875s-13.875-6.212-13.875-13.875"/>
<path fill-rule="evenodd" clip-rule="evenodd" fill="none" stroke="#000000" stroke-miterlimit="10" d="M-65.099-326.156
	c2.391,4.177,6.892,6.991,12.05,6.991c5.159,0,9.66-2.815,12.052-6.994s6.893-6.994,12.052-6.994c5.156,0,9.655,2.812,12.047,6.987
	c2.391,4.177,6.892,6.991,12.05,6.991c5.159,0,9.66-2.815,12.052-6.994s6.893-6.994,12.052-6.994c5.156,0,9.655,2.812,12.047,6.987
	c2.391,4.177,6.892,6.991,12.05,6.991c5.159,0,9.66-2.815,12.052-6.994s6.893-6.994,12.052-6.994c5.156,0,9.655,2.812,12.047,6.987
	c2.391,4.177,6.892,6.991,12.05,6.991c5.159,0,9.66-2.815,12.052-6.994s6.893-6.994,12.052-6.994c5.156,0,9.655,2.812,12.047,6.987
	c2.391,4.177,6.892,6.991,12.05,6.991c5.159,0,9.66-2.815,12.052-6.994s6.893-6.994,12.052-6.994c5.156,0,9.655,2.812,12.047,6.987
	c2.391,4.177,6.892,6.991,12.05,6.991c5.159,0,9.66-2.815,12.052-6.994s6.893-6.994,12.052-6.994c5.156,0,9.655,2.812,12.047,6.987"
	/>
<path fill-rule="evenodd" clip-rule="evenodd" fill="none" stroke="#000000" stroke-miterlimit="10" d="M-324.298-302.729
	c2.391,4.177,6.892,6.991,12.05,6.991c5.159,0,9.66-2.815,12.052-6.994s6.893-6.994,12.052-6.994c5.156,0,9.655,2.812,12.047,6.987
	c2.391,4.177,6.892,6.991,12.05,6.991c5.159,0,9.66-2.815,12.052-6.994s6.893-6.994,12.052-6.994c5.156,0,9.655,2.812,12.047,6.987
	c2.391,4.177,6.892,6.991,12.05,6.991c5.159,0,9.66-2.815,12.052-6.994s6.893-6.994,12.052-6.994c5.156,0,9.655,2.812,12.047,6.987
	c2.391,4.177,6.892,6.991,12.05,6.991c5.159,0,9.66-2.815,12.052-6.994s6.893-6.994,12.052-6.994c5.156,0,9.655,2.812,12.047,6.987
	c2.391,4.177,6.892,6.991,12.05,6.991c5.159,0,9.66-2.815,12.052-6.994s6.893-6.994,12.052-6.994c5.156,0,9.655,2.812,12.047,6.987
	c2.391,4.177,6.892,6.991,12.05,6.991c5.159,0,9.66-2.815,12.052-6.994s6.893-6.994,12.052-6.994c5.156,0,9.655,2.812,12.047,6.987
	c2.391,4.177,6.892,6.991,12.05,6.991c5.159,0,9.66-2.815,12.052-6.994s6.893-6.994,12.052-6.994c5.156,0,9.655,2.812,12.047,6.987
	c2.391,4.177,6.892,6.991,12.05,6.991c5.159,0,9.66-2.815,12.052-6.994s6.893-6.994,12.052-6.994c5.156,0,9.655,2.812,12.047,6.987
	c2.391,4.177,6.892,6.991,12.05,6.991c5.159,0,9.66-2.815,12.052-6.994s6.893-6.994,12.052-6.994c5.156,0,9.655,2.812,12.047,6.987
	c2.391,4.177,6.892,6.991,12.05,6.991c5.159,0,9.66-2.815,12.052-6.994s6.893-6.994,12.052-6.994c5.156,0,9.655,2.812,12.047,6.987
	c2.391,4.177,6.892,6.991,12.05,6.991c5.159,0,9.66-2.815,12.052-6.994s6.893-6.994,12.052-6.994c5.156,0,9.655,2.812,12.047,6.987
	c2.391,4.177,6.892,6.991,12.05,6.991c5.159,0,9.66-2.815,12.052-6.994s6.893-6.994,12.052-6.994c5.156,0,9.655,2.812,12.047,6.987"
	/>
<g>
	<defs>
		<rect id="SVGID_1_" x="120.552" y="-212.524" width="15" height="15.081"/>
	</defs>
	<clipPath id="SVGID_2_">
		<use xlink:href="#SVGID_1_"  overflow="visible"/>
	</clipPath>
	<g clip-path="url(#SVGID_2_)">
		<g>
			<circle fill="#B2B2B2" cx="128.052" cy="-204.943" r="7.581"/>
		</g>
		<g>
			
				<rect x="112.618" y="-208.789" transform="matrix(0.7071 -0.7071 0.7071 0.7071 185.1822 31.5334)" fill="#CA9E67" stroke="#000000" stroke-width="0.25" stroke-miterlimit="10" width="36.075" height="2.047"/>
			<path fill-rule="evenodd" clip-rule="evenodd" fill="none" stroke="#000000" stroke-width="0.4049" stroke-miterlimit="10" d="
				M120.445-197.558c0.544,0.148,1.15,0.008,1.578-0.418c0.427-0.428,0.567-1.034,0.419-1.578c-0.148-0.544-0.009-1.151,0.418-1.578
				c0.428-0.428,1.034-0.567,1.577-0.419c0.544,0.148,1.15,0.008,1.577-0.419c0.428-0.427,0.568-1.034,0.42-1.578
				c-0.148-0.545-0.008-1.151,0.419-1.578c0.427-0.427,1.033-0.567,1.577-0.42c0.544,0.148,1.15,0.009,1.577-0.419
				c0.428-0.427,0.567-1.033,0.42-1.578c-0.148-0.544-0.009-1.15,0.418-1.578c0.428-0.427,1.034-0.566,1.578-0.419
				c0.544,0.148,1.15,0.009,1.578-0.419c0.428-0.428,0.567-1.033,0.418-1.579c-0.147-0.543-0.008-1.15,0.42-1.577
				c0.428-0.428,1.033-0.567,1.576-0.419c0.545,0.148,1.151,0.008,1.578-0.419c0.427-0.428,0.567-1.034,0.419-1.578
				s-0.008-1.15,0.419-1.578c0.428-0.428,1.033-0.567,1.577-0.42c0.544,0.149,1.15,0.009,1.578-0.417
				c0.427-0.429,0.567-1.035,0.419-1.579c-0.147-0.544-0.008-1.15,0.418-1.578c0.427-0.427,1.034-0.567,1.578-0.419"/>
		</g>
		<path fill="#FFFFFF" d="M119.344-214.026v18.333h17.417v-18.333H119.344z M128.052-197.443c-4.142,0-7.5-3.358-7.5-7.5
			s3.358-7.5,7.5-7.5s7.5,3.358,7.5,7.5S132.194-197.443,128.052-197.443z"/>
	</g>
</g>
<g>
	<defs>
		<rect id="SVGID_3_" x="149.427" y="-212.524" width="29.92" height="30.081"/>
	</defs>
	<clipPath id="SVGID_4_">
		<use xlink:href="#SVGID_3_"  overflow="visible"/>
	</clipPath>
	<g clip-path="url(#SVGID_4_)">
		<polygon fill="#CBBBA0" stroke="#000000" stroke-width="0.75" stroke-miterlimit="10" points="148.365,-187.115 174.56,-213.311 
			180.427,-205.693 171.927,-192.943 156.177,-181.193 		"/>
		<g>
			<path fill-rule="evenodd" clip-rule="evenodd" fill="none" stroke="#000000" stroke-width="2.3256" stroke-miterlimit="10" d="
				M149.111-182.774c1.333,0.544,2.709,0.432,3.562-0.419c0.852-0.854,0.963-2.23,0.421-3.563c-0.544-1.334-0.434-2.711,0.418-3.564
				c0.853-0.853,2.229-0.964,3.56-0.422c1.335,0.543,2.711,0.433,3.561-0.421c0.855-0.852,0.966-2.229,0.423-3.562
				c-0.544-1.335-0.432-2.711,0.421-3.563c0.851-0.852,2.227-0.964,3.56-0.422c1.334,0.544,2.708,0.433,3.561-0.421
				c0.854-0.852,0.965-2.226,0.423-3.561c-0.543-1.333-0.434-2.709,0.417-3.564c0.855-0.851,2.23-0.962,3.562-0.42
				c1.334,0.545,2.709,0.433,3.562-0.421c0.853-0.853,0.964-2.227,0.418-3.565c-0.541-1.33-0.432-2.708,0.423-3.56
				c0.853-0.854,2.227-0.965,3.558-0.422c1.335,0.543,2.713,0.432,3.564-0.42c0.852-0.854,0.963-2.229,0.42-3.563
				c-0.544-1.334-0.432-2.709,0.42-3.562c0.853-0.853,2.227-0.964,3.561-0.423c1.334,0.545,2.709,0.433,3.562-0.418
				c0.851-0.855,0.964-2.23,0.421-3.564c-0.542-1.333-0.432-2.709,0.419-3.562c0.853-0.852,2.23-0.964,3.562-0.421"/>
		</g>
		<polygon fill="#CA9E67" stroke="#000000" stroke-width="0.75" stroke-miterlimit="10" points="153.435,-182.046 178.683,-207.294 
			181.094,-201.443 181.094,-189.61 173.594,-180.526 157.011,-180.526 		"/>
		<path fill="#FFFFFF" d="M147.017-215.521v36.568h34.74v-36.568H147.017z M164.387-182.443c-8.262,0-14.96-6.698-14.96-14.96
			s6.698-14.96,14.96-14.96s14.96,6.698,14.96,14.96S172.649-182.443,164.387-182.443z"/>
	</g>
</g>
<g>
	<path d="M164.346-211.402c7.697,0,13.959,6.234,13.959,13.897c0,7.663-6.262,13.897-13.959,13.897
		c-7.696,0-13.958-6.234-13.958-13.897C150.388-205.167,156.649-211.402,164.346-211.402 M164.346-212.524
		c-8.328,0-15.08,6.725-15.08,15.02c0,8.294,6.752,15.019,15.08,15.019c8.329,0,15.081-6.725,15.081-15.019
		C179.427-205.799,172.674-212.524,164.346-212.524L164.346-212.524z"/>
</g>
<g>
	<defs>
		<circle id="SVGID_5_" cx="164.427" cy="-150.318" r="15"/>
	</defs>
	<clipPath id="SVGID_6_">
		<use xlink:href="#SVGID_5_"  overflow="visible"/>
	</clipPath>
	<g clip-path="url(#SVGID_6_)">
		<polygon fill="#CA9E67" stroke="#000000" stroke-width="0.75" stroke-miterlimit="10" points="148.365,-139.99 174.56,-166.186 
			180.427,-158.568 171.927,-145.818 156.177,-134.068 		"/>
		<g>
			<path fill-rule="evenodd" clip-rule="evenodd" fill="none" stroke="#000000" stroke-width="2.3256" stroke-miterlimit="10" d="
				M149.111-135.649c1.333,0.544,2.709,0.432,3.562-0.419c0.852-0.854,0.963-2.23,0.421-3.563c-0.544-1.334-0.434-2.711,0.418-3.564
				c0.853-0.853,2.229-0.964,3.56-0.422c1.335,0.543,2.711,0.433,3.561-0.421c0.855-0.852,0.966-2.229,0.423-3.562
				c-0.544-1.335-0.432-2.711,0.421-3.563c0.851-0.852,2.227-0.964,3.56-0.422c1.334,0.544,2.708,0.433,3.561-0.421
				c0.854-0.852,0.965-2.226,0.423-3.561c-0.543-1.333-0.434-2.709,0.417-3.564c0.855-0.851,2.23-0.962,3.562-0.42
				c1.334,0.545,2.709,0.433,3.562-0.421c0.853-0.853,0.964-2.227,0.418-3.565c-0.541-1.33-0.432-2.708,0.423-3.56
				c0.853-0.854,2.227-0.965,3.558-0.422c1.335,0.543,2.713,0.432,3.564-0.42c0.852-0.854,0.963-2.229,0.42-3.563
				c-0.544-1.334-0.432-2.709,0.42-3.562c0.853-0.853,2.227-0.964,3.561-0.423c1.334,0.545,2.709,0.433,3.562-0.418
				c0.851-0.855,0.964-2.23,0.421-3.564c-0.542-1.333-0.432-2.709,0.419-3.562c0.853-0.852,2.23-0.964,3.562-0.421"/>
		</g>
		<polygon fill="#CBBBA0" stroke="#000000" stroke-width="0.75" stroke-miterlimit="10" points="153.435,-134.921 178.683,-160.169 
			181.094,-154.318 181.094,-142.485 173.594,-133.401 157.011,-133.401 		"/>
		<rect x="149.427" y="-165.399" fill="none" width="29.92" height="30.081"/>
		<g>
			<path d="M164.426-164.201c7.655,0,13.882,6.228,13.882,13.882c0,7.654-6.228,13.882-13.882,13.882
				c-7.654,0-13.881-6.228-13.881-13.882C150.545-157.973,156.772-164.201,164.426-164.201 M164.426-165.319
				c-8.283,0-15,6.717-15,15c0,8.283,6.716,15,15,15c8.284,0,15-6.717,15-15C179.427-158.602,172.71-165.319,164.426-165.319
				L164.426-165.319z"/>
		</g>
	</g>
</g>
<g>
	<defs>
		<circle id="SVGID_7_" cx="164.427" cy="-112.985" r="15"/>
	</defs>
	<clipPath id="SVGID_8_">
		<use xlink:href="#SVGID_7_"  overflow="visible"/>
	</clipPath>
	<g clip-path="url(#SVGID_8_)">
		<polygon fill="#A48A7B" stroke="#000000" stroke-width="0.75" stroke-miterlimit="10" points="148.365,-103.907 174.56,-130.103 
			180.427,-122.485 171.927,-109.735 156.177,-97.985 		"/>
		<polygon fill="#CA9E67" stroke="#000000" stroke-width="0.75" stroke-miterlimit="10" points="150.365,-99.657 176.56,-125.853 
			182.427,-118.235 173.927,-105.485 158.177,-93.735 		"/>
		<g>
			<path fill-rule="evenodd" clip-rule="evenodd" fill="none" stroke="#000000" stroke-width="2.3256" stroke-miterlimit="10" d="
				M151.111-95.316c1.333,0.544,2.709,0.432,3.562-0.419c0.852-0.854,0.963-2.23,0.421-3.563c-0.544-1.334-0.434-2.711,0.418-3.564
				c0.853-0.853,2.229-0.964,3.56-0.422c1.335,0.543,2.711,0.433,3.561-0.421c0.855-0.852,0.966-2.229,0.423-3.562
				c-0.544-1.335-0.432-2.711,0.421-3.563c0.851-0.852,2.227-0.964,3.56-0.422c1.334,0.544,2.708,0.433,3.561-0.421
				c0.854-0.852,0.965-2.226,0.423-3.561c-0.543-1.333-0.434-2.709,0.417-3.564c0.855-0.851,2.23-0.962,3.562-0.42
				c1.334,0.545,2.709,0.433,3.562-0.421c0.853-0.853,0.964-2.227,0.418-3.565c-0.541-1.33-0.432-2.708,0.423-3.56
				c0.853-0.854,2.227-0.965,3.558-0.422c1.335,0.543,2.713,0.432,3.564-0.42c0.852-0.854,0.963-2.229,0.42-3.563
				c-0.544-1.334-0.432-2.709,0.42-3.562c0.853-0.853,2.227-0.964,3.561-0.423c1.334,0.545,2.709,0.433,3.562-0.418
				c0.851-0.855,0.964-2.23,0.421-3.564c-0.542-1.333-0.432-2.709,0.419-3.562c0.853-0.852,2.23-0.964,3.562-0.421"/>
		</g>
		<g>
			<path fill-rule="evenodd" clip-rule="evenodd" fill="none" stroke="#000000" stroke-width="1.3621" stroke-miterlimit="10" d="
				M147.834-100.297c0.781,0.319,1.586,0.253,2.086-0.246c0.499-0.5,0.564-1.306,0.247-2.087c-0.319-0.781-0.254-1.588,0.245-2.087
				c0.5-0.5,1.306-0.565,2.085-0.248c0.782,0.318,1.588,0.253,2.086-0.247c0.501-0.499,0.566-1.305,0.248-2.086
				c-0.319-0.782-0.253-1.588,0.246-2.087c0.499-0.499,1.305-0.565,2.085-0.248c0.781,0.318,1.586,0.253,2.085-0.247
				c0.5-0.499,0.565-1.304,0.248-2.086c-0.318-0.781-0.254-1.587,0.245-2.087c0.5-0.498,1.306-0.563,2.086-0.246
				c0.781,0.319,1.586,0.253,2.086-0.247c0.5-0.5,0.564-1.304,0.245-2.088c-0.317-0.779-0.252-1.586,0.248-2.085
				c0.5-0.5,1.304-0.565,2.083-0.248c0.782,0.318,1.589,0.253,2.087-0.246c0.499-0.5,0.564-1.306,0.247-2.087
				c-0.319-0.781-0.253-1.587,0.246-2.086c0.5-0.5,1.305-0.564,2.086-0.248c0.781,0.319,1.587,0.253,2.086-0.245
				c0.499-0.501,0.564-1.306,0.247-2.087c-0.317-0.781-0.253-1.587,0.245-2.087c0.5-0.499,1.306-0.564,2.086-0.247"/>
		</g>
		<polygon fill="#CBBBA0" stroke="#000000" stroke-width="0.75" stroke-miterlimit="10" points="155.435,-94.588 180.683,-119.836 
			183.094,-113.985 183.094,-102.152 175.594,-93.068 159.011,-93.068 		"/>
		<rect x="149.427" y="-128.066" fill="none" width="29.92" height="30.081"/>
		<g>
			<path d="M164.426-126.868c7.655,0,13.882,6.228,13.882,13.882c0,7.654-6.228,13.882-13.882,13.882
				c-7.654,0-13.881-6.228-13.881-13.882C150.545-120.64,156.772-126.868,164.426-126.868 M164.426-127.986c-8.283,0-15,6.717-15,15
				c0,8.283,6.716,15,15,15c8.284,0,15-6.717,15-15C179.427-121.269,172.71-127.986,164.426-127.986L164.426-127.986z"/>
		</g>
	</g>
</g>
<g>
	<defs>
		<circle id="SVGID_9_" cx="102.68" cy="-112.986" r="15"/>
	</defs>
	<clipPath id="SVGID_10_">
		<use xlink:href="#SVGID_9_"  overflow="visible"/>
	</clipPath>
	<g clip-path="url(#SVGID_10_)">
		<g>
			<defs>
				<rect id="SVGID_11_" x="87.68" y="-127.986" width="30" height="30"/>
			</defs>
			<clipPath id="SVGID_12_">
				<use xlink:href="#SVGID_11_"  overflow="visible"/>
			</clipPath>
			<g clip-path="url(#SVGID_12_)">
				<polygon fill="none" stroke="#000000" stroke-width="0.75" stroke-miterlimit="10" points="120.246,-108.987 84.54,-108.987 
					84.54,-116.156 121.585,-116.156 				"/>
				<g>
					<path fill-rule="evenodd" clip-rule="evenodd" fill="none" stroke="#000000" stroke-width="2.3256" stroke-miterlimit="10" d="
						M81.998-112.559c0.558,1.327,1.61,2.221,2.815,2.222c1.207-0.001,2.258-0.896,2.817-2.222c0.559-1.329,1.611-2.224,2.816-2.225
						c1.206,0,2.257,0.895,2.815,2.219c0.56,1.328,1.611,2.223,2.816,2.22c1.207,0.003,2.259-0.892,2.818-2.219
						c0.56-1.329,1.612-2.223,2.817-2.222c1.204-0.001,2.256,0.893,2.816,2.219c0.559,1.328,1.609,2.221,2.816,2.22
						c1.206,0.002,2.256-0.892,2.817-2.219c0.559-1.327,1.609-2.223,2.815-2.225c1.206,0.003,2.257,0.896,2.816,2.222
						c0.559,1.329,1.61,2.221,2.817,2.221c1.207,0,2.256-0.893,2.817-2.225c0.558-1.323,1.61-2.22,2.816-2.218
						c1.207-0.001,2.257,0.892,2.814,2.217c0.56,1.328,1.613,2.224,2.817,2.223c1.206-0.001,2.258-0.895,2.817-2.222
						c0.559-1.329,1.61-2.222,2.816-2.222c1.207,0,2.256,0.893,2.817,2.219c0.558,1.328,1.61,2.222,2.814,2.223
						c1.207-0.003,2.259-0.896,2.818-2.223c0.559-1.326,1.61-2.221,2.815-2.223c1.205,0,2.258,0.896,2.816,2.221"/>
				</g>
				<polyline fill="none" points="82.694,-115.637 103.964,-136.907 125.121,-115.751 103.851,-94.48 				"/>
			</g>
		</g>
	</g>
</g>
<g>
	<defs>
		<circle id="SVGID_13_" cx="102.68" cy="-67.819" r="15"/>
	</defs>
	<clipPath id="SVGID_14_">
		<use xlink:href="#SVGID_13_"  overflow="visible"/>
	</clipPath>
	<g clip-path="url(#SVGID_14_)">
		<g>
			<defs>
				<rect id="SVGID_15_" x="87.68" y="-82.819" width="30" height="30"/>
			</defs>
			<clipPath id="SVGID_16_">
				<use xlink:href="#SVGID_15_"  overflow="visible"/>
			</clipPath>
			<g opacity="0.4" clip-path="url(#SVGID_16_)">
				<polygon fill="none" stroke="#000000" stroke-width="0.75" stroke-miterlimit="10" points="120.246,-63.82 84.54,-63.82 
					84.54,-70.989 121.585,-70.99 				"/>
				<g>
					<path fill-rule="evenodd" clip-rule="evenodd" fill="none" stroke="#000000" stroke-width="2.3256" stroke-miterlimit="10" d="
						M81.998-67.392c0.558,1.327,1.61,2.221,2.815,2.222c1.207-0.001,2.258-0.896,2.817-2.222c0.559-1.329,1.611-2.224,2.816-2.225
						c1.206,0,2.257,0.895,2.815,2.219c0.56,1.328,1.611,2.223,2.816,2.22c1.207,0.003,2.259-0.892,2.818-2.219
						c0.56-1.329,1.612-2.223,2.817-2.222c1.204-0.001,2.256,0.893,2.816,2.219c0.559,1.328,1.609,2.221,2.816,2.22
						c1.206,0.002,2.256-0.892,2.817-2.219c0.559-1.327,1.609-2.223,2.815-2.225c1.206,0.003,2.257,0.896,2.816,2.222
						c0.559,1.329,1.61,2.221,2.817,2.221c1.207,0,2.256-0.893,2.817-2.225c0.558-1.323,1.61-2.22,2.816-2.218
						c1.207-0.001,2.257,0.892,2.814,2.217c0.56,1.328,1.613,2.224,2.817,2.223c1.206-0.001,2.258-0.895,2.817-2.222
						c0.559-1.329,1.61-2.222,2.816-2.222c1.207,0,2.256,0.893,2.817,2.219c0.558,1.328,1.61,2.222,2.814,2.223
						c1.207-0.003,2.259-0.896,2.818-2.223c0.559-1.326,1.61-2.221,2.815-2.223c1.205,0,2.258,0.896,2.816,2.221"/>
				</g>
				<polyline fill="none" points="82.694,-70.471 103.964,-91.741 125.121,-70.584 103.851,-49.314 				"/>
			</g>
		</g>
	</g>
</g>
<g>
	<defs>
		<circle id="SVGID_17_" cx="64.68" cy="-112.986" r="15"/>
	</defs>
	<clipPath id="SVGID_18_">
		<use xlink:href="#SVGID_17_"  overflow="visible"/>
	</clipPath>
	<g clip-path="url(#SVGID_18_)">
		<g>
			<defs>
				<rect id="SVGID_19_" x="49.68" y="-127.986" width="30" height="30"/>
			</defs>
			<clipPath id="SVGID_20_">
				<use xlink:href="#SVGID_19_"  overflow="visible"/>
			</clipPath>
			<g clip-path="url(#SVGID_20_)">
				
					<line fill="none" stroke="#000000" stroke-width="0.75" stroke-miterlimit="10" x1="48.13" y1="-118.576" x2="85.176" y2="-118.576"/>
				<polygon fill="none" stroke="#000000" stroke-width="0.75" stroke-miterlimit="10" points="82.246,-106.987 46.54,-106.987 
					46.54,-114.156 83.585,-114.156 				"/>
				<g>
					<path fill-rule="evenodd" clip-rule="evenodd" fill="none" stroke="#000000" stroke-width="2.3256" stroke-miterlimit="10" d="
						M43.998-110.559c0.558,1.327,1.61,2.221,2.815,2.222c1.207-0.001,2.258-0.896,2.817-2.222c0.559-1.329,1.611-2.224,2.816-2.225
						c1.206,0,2.257,0.895,2.815,2.219c0.56,1.328,1.611,2.223,2.816,2.22c1.207,0.003,2.259-0.892,2.818-2.219
						c0.56-1.329,1.612-2.223,2.817-2.222c1.204-0.001,2.256,0.893,2.816,2.219c0.559,1.328,1.609,2.221,2.816,2.22
						c1.206,0.002,2.256-0.892,2.817-2.219c0.559-1.327,1.609-2.223,2.815-2.225c1.206,0.003,2.257,0.896,2.816,2.222
						c0.559,1.329,1.61,2.221,2.817,2.221c1.207,0,2.256-0.893,2.817-2.225c0.558-1.323,1.61-2.22,2.816-2.218
						c1.207-0.001,2.257,0.892,2.814,2.217c0.56,1.328,1.613,2.224,2.817,2.223c1.206-0.001,2.258-0.895,2.817-2.222
						c0.559-1.329,1.61-2.222,2.816-2.222c1.207,0,2.256,0.893,2.817,2.219c0.558,1.328,1.61,2.222,2.814,2.223
						c1.207-0.003,2.259-0.896,2.818-2.223c0.559-1.326,1.61-2.221,2.815-2.223c1.205,0,2.258,0.896,2.816,2.221"/>
				</g>
				<g>
					<path fill-rule="evenodd" clip-rule="evenodd" fill="none" stroke="#000000" stroke-width="1.3621" stroke-miterlimit="10" d="
						M45.203-116.398c0.326,0.778,0.943,1.301,1.648,1.301c0.707,0,1.323-0.524,1.65-1.301c0.327-0.778,0.943-1.302,1.648-1.303
						c0.707,0,1.323,0.524,1.649,1.299c0.328,0.778,0.944,1.302,1.649,1.301c0.707,0.001,1.323-0.523,1.65-1.3
						c0.328-0.778,0.944-1.302,1.65-1.302c0.705,0,1.322,0.523,1.649,1.3c0.327,0.777,0.943,1.301,1.649,1.3
						c0.707,0.001,1.322-0.523,1.65-1.3c0.327-0.777,0.942-1.302,1.649-1.303c0.706,0.001,1.322,0.525,1.649,1.301
						c0.327,0.778,0.943,1.301,1.65,1.3c0.707,0,1.321-0.523,1.65-1.303c0.327-0.774,0.943-1.3,1.649-1.299
						c0.707,0,1.322,0.523,1.648,1.298c0.328,0.778,0.944,1.303,1.649,1.302c0.707,0,1.323-0.524,1.65-1.302
						c0.327-0.778,0.943-1.301,1.649-1.301c0.707,0,1.321,0.523,1.65,1.299c0.326,0.778,0.943,1.301,1.648,1.302
						c0.707-0.002,1.322-0.524,1.65-1.302c0.328-0.776,0.943-1.301,1.649-1.302c0.706,0,1.323,0.524,1.649,1.301"/>
				</g>
				<polyline fill="none" points="44.694,-113.637 65.964,-134.907 87.121,-113.751 65.851,-92.48 				"/>
			</g>
		</g>
	</g>
</g>
<g>
	<defs>
		<circle id="SVGID_21_" cx="15" cy="-112.986" r="15"/>
	</defs>
	<clipPath id="SVGID_22_">
		<use xlink:href="#SVGID_21_"  overflow="visible"/>
	</clipPath>
	<g clip-path="url(#SVGID_22_)">
		<g>
			<defs>
				<rect id="SVGID_23_" x="0" y="-127.985" width="30" height="30"/>
			</defs>
			<clipPath id="SVGID_24_">
				<use xlink:href="#SVGID_23_"  overflow="visible"/>
			</clipPath>
			<g clip-path="url(#SVGID_24_)">
				
					<line fill="none" stroke="#000000" stroke-width="0.75" stroke-miterlimit="10" x1="0.45" y1="-120.867" x2="37.495" y2="-120.867"/>
				<polygon fill="none" stroke="#000000" stroke-width="0.75" stroke-miterlimit="10" points="32.565,-109.278 -3.141,-109.278 
					-3.141,-116.447 33.904,-116.448 				"/>
				<g>
					<path fill-rule="evenodd" clip-rule="evenodd" fill="none" stroke="#000000" stroke-width="2.3256" stroke-miterlimit="10" d="
						M-5.683-112.85c0.558,1.327,1.61,2.221,2.815,2.222c1.207-0.001,2.258-0.896,2.817-2.222c0.559-1.329,1.611-2.224,2.816-2.225
						c1.206,0,2.257,0.895,2.815,2.219c0.56,1.328,1.611,2.223,2.816,2.22c1.207,0.003,2.259-0.892,2.818-2.219
						c0.56-1.329,1.612-2.223,2.817-2.222c1.204-0.001,2.256,0.893,2.816,2.219c0.559,1.328,1.609,2.221,2.816,2.22
						c1.206,0.002,2.256-0.892,2.817-2.219c0.559-1.327,1.609-2.223,2.815-2.225c1.206,0.003,2.257,0.896,2.816,2.222
						c0.559,1.329,1.61,2.221,2.817,2.221c1.207,0,2.256-0.893,2.817-2.225c0.558-1.323,1.61-2.22,2.816-2.218
						c1.207-0.001,2.257,0.892,2.814,2.217c0.56,1.328,1.613,2.224,2.817,2.223c1.206-0.001,2.258-0.895,2.817-2.222
						c0.559-1.329,1.61-2.222,2.816-2.222c1.207,0,2.256,0.893,2.817,2.219c0.558,1.328,1.61,2.222,2.814,2.223
						c1.207-0.003,2.259-0.896,2.818-2.223c0.559-1.326,1.61-2.221,2.815-2.223c1.205,0,2.258,0.896,2.816,2.221"/>
				</g>
				<g>
					<path fill-rule="evenodd" clip-rule="evenodd" fill="none" stroke="#000000" stroke-width="1.3621" stroke-miterlimit="10" d="
						M-2.478-118.69c0.326,0.778,0.943,1.301,1.648,1.301c0.707,0,1.323-0.524,1.65-1.301c0.327-0.778,0.943-1.302,1.648-1.303
						c0.707,0,1.323,0.524,1.649,1.299c0.328,0.778,0.944,1.302,1.649,1.301c0.707,0.001,1.323-0.523,1.65-1.3
						c0.328-0.778,0.944-1.302,1.65-1.302c0.705,0,1.322,0.523,1.649,1.3c0.327,0.777,0.943,1.301,1.649,1.3
						c0.707,0.001,1.322-0.523,1.65-1.3c0.327-0.777,0.942-1.302,1.649-1.303c0.706,0.001,1.322,0.525,1.649,1.301
						c0.327,0.778,0.943,1.301,1.65,1.3c0.707,0,1.321-0.523,1.65-1.303c0.327-0.774,0.943-1.3,1.649-1.299
						c0.707,0,1.322,0.523,1.648,1.298c0.328,0.778,0.944,1.303,1.649,1.302c0.707,0,1.323-0.524,1.65-1.302
						c0.327-0.778,0.943-1.301,1.649-1.301c0.707,0,1.321,0.523,1.65,1.299c0.326,0.778,0.943,1.301,1.648,1.302
						c0.707-0.002,1.322-0.524,1.65-1.302c0.328-0.776,0.943-1.301,1.649-1.302c0.706,0,1.323,0.524,1.649,1.301"/>
				</g>
				
					<line fill="none" stroke="#000000" stroke-width="0.75" stroke-miterlimit="10" x1="35.568" y1="-105.208" x2="-1.478" y2="-105.208"/>
				<g>
					<path fill-rule="evenodd" clip-rule="evenodd" fill="none" stroke="#000000" stroke-width="1.3621" stroke-miterlimit="10" d="
						M38.496-107.385c-0.326-0.778-0.943-1.301-1.648-1.301c-0.707,0-1.323,0.524-1.65,1.301c-0.327,0.778-0.943,1.302-1.648,1.303
						c-0.707,0-1.323-0.524-1.649-1.299c-0.328-0.778-0.944-1.302-1.649-1.301c-0.707-0.001-1.323,0.523-1.65,1.3
						c-0.328,0.778-0.944,1.302-1.65,1.302c-0.705,0-1.322-0.523-1.649-1.3c-0.327-0.777-0.943-1.301-1.649-1.3
						c-0.707-0.001-1.322,0.523-1.65,1.3c-0.327,0.777-0.942,1.302-1.649,1.303c-0.706-0.001-1.322-0.525-1.649-1.301
						c-0.327-0.778-0.943-1.301-1.65-1.3c-0.707,0-1.321,0.523-1.65,1.303c-0.327,0.774-0.943,1.3-1.649,1.299
						c-0.707,0-1.322-0.523-1.648-1.298c-0.328-0.778-0.944-1.303-1.649-1.302c-0.707,0-1.323,0.524-1.65,1.302
						c-0.327,0.778-0.943,1.301-1.649,1.301c-0.707,0-1.321-0.523-1.65-1.299c-0.326-0.778-0.943-1.301-1.648-1.302
						c-0.707,0.002-1.322,0.524-1.65,1.302c-0.328,0.776-0.943,1.301-1.649,1.302c-0.706,0-1.323-0.524-1.649-1.301"/>
				</g>
				<polyline fill="none" points="-4.987,-115.929 16.283,-137.199 37.44,-116.042 16.17,-94.772 				"/>
			</g>
		</g>
	</g>
</g>
<g>
	<defs>
		<circle id="SVGID_25_" cx="102.68" cy="-27.319" r="15"/>
	</defs>
	<clipPath id="SVGID_26_">
		<use xlink:href="#SVGID_25_"  overflow="visible"/>
	</clipPath>
	<g clip-path="url(#SVGID_26_)">
		<g>
			<defs>
				<rect id="SVGID_27_" x="87.68" y="-42.319" width="30" height="30"/>
			</defs>
			<clipPath id="SVGID_28_">
				<use xlink:href="#SVGID_27_"  overflow="visible"/>
			</clipPath>
			<rect x="87.68" y="-42.319" clip-path="url(#SVGID_28_)" fill="#CE863E" width="30" height="30"/>
		</g>
	</g>
</g>
<g>
	<path fill="#CE863E" d="M102.68-41.319c7.72,0,14,6.281,14,14s-6.281,14-14,14s-14-6.28-14-14S94.96-41.319,102.68-41.319
		 M102.68-42.319c-8.284,0-15,6.716-15,15c0,8.284,6.716,15,15,15c8.285,0,15-6.716,15-15
		C117.681-35.604,110.965-42.319,102.68-42.319L102.68-42.319z"/>
</g>
<g>
	<text transform="matrix(1 0 0 1 95.8325 -16.6504)" fill="#FFFFFF" font-family="'Avenir-Roman'" font-size="28.1148">?</text>
</g>
<text transform="matrix(1 0 0 1 95.8325 -56.6504)" fill="#575756" font-family="'Avenir-Roman'" font-size="28.1148">?</text>
<g>
	<path fill="none" stroke="#878787" stroke-width="1.5" stroke-linejoin="round" stroke-miterlimit="10" d="M28.771,7.304
		l0.175,20.278C28.954,28.362,28.321,29,27.542,29H3.354c-0.78,0-1.422-0.638-1.427-1.417L1.758,2.499
		c-0.005-0.78,0.628-1.417,1.408-1.417h17.863"/>
</g>
<g>
	<path fill="none" stroke="#878787" stroke-width="1.311" stroke-miterlimit="10" d="M21.214,1.082v4.805
		c0,0.78,0.638,1.417,1.417,1.417h6.14"/>
</g>
<line fill="none" stroke="#878787" stroke-width="1.311" stroke-linecap="round" stroke-miterlimit="10" x1="20.975" y1="1" x2="28.885" y2="7.191"/>
</svg>
